<?xml version="1.0" encoding="UTF-8"?><svg id="Layer_2" xmlns="http://www.w3.org/2000/svg" viewBox="0 0 94.46 50.65"><defs><style>.cls-1,.cls-2,.cls-3{stroke:#000;stroke-miterlimit:10;}.cls-1,.cls-3{fill:#000;}.cls-2{fill:none;stroke-linecap:round;stroke-width:2px;}.cls-4{fill:#ff6464;}.cls-4,.cls-5,.cls-6{stroke-width:0px;}.cls-5{fill:#7fb2ff;}.cls-3{stroke-width:.75px;}.cls-6{fill:#ffe468;}</style></defs><g id="Layer_1-2"><path class="cls-4" d="M36.63,9.03c-.21.33-.05.15.08-.07-.09.15-.24.29-.36.43-.25.29-.52.58-.78.87-.56.63-1.14,1.28-1.59,2-1.28,2.08-.57,4.67,1.91,5.37,2.28.64,5,0,6.71-1.63,1.89-1.81,2.01-4.52.78-6.71-.52-.93-1.79-1.48-2.82-1.15-1.73.56-3.04,1.68-4.05,3.16l4.32,2.52c.44-.86.86-1.74,1.12-2.67s-.1-2.03-.9-2.63c-.74-.55-1.97-.79-2.78-.2-2.23,1.64-3.72,3.95-4.77,6.48-.99,2.37-1.55,5.06-.92,7.6.43,1.71,2.97,2.56,4.18,1.1s1.93-2.98,2.53-4.73c.8-2.32-2.56-4.3-4.18-2.43-1.08,1.24-1.82,2.71-2.43,4.23s-1.09,3.45-.56,5.14c1.56,4.99,8.46,2.21,11.53.54,1.95-1.07,3.71-2.44,5.53-3.72,1.73-1.21,3.41-2.46,4.32-4.43,1.05-2.26,1.05-4.87,0-7.13-1.15-2.45-3.86-2.8-5.98-1.41-4.45,2.9-7.85,7.3-11.01,11.48-.66.87-.33,2.31.39,3.03.84.84,2,.85,3.03.39,2.34-1.05,4.55-2.41,6.62-3.93,2.27-1.66,4.42-3.48,6.04-5.8,1.22-1.77-.81-4.36-2.82-3.67-4.26,1.46-7.52,4.65-10.49,7.91-.83.92-.99,2.28-.2,3.28.75.94,2.15,1.31,3.23.64.47-.29.87-.64,1.27-1.02.97-.94.94-2.59,0-3.54s-2.56-.94-3.54,0c-.04.04-.58.44-.26.24l3.03,3.93c1.29-1.41,2.6-2.8,4.05-4.05.69-.59,1.12-.93,1.99-1.47.37-.23.76-.46,1.15-.66.54-.27.38-.21,1.08-.45l-2.82-3.67c-.07.11-.15.22-.23.32.19-.24.19-.24.01-.02-.19.22-.37.44-.57.65-.37.4-.75.78-1.15,1.15-.48.45-.99.88-1.5,1.29-.13.11-.26.21-.4.32.17-.13.13-.11-.1.08-.24.18-.48.36-.73.53-1.95,1.39-4.02,2.64-6.2,3.63l3.42,3.42c2.09-2.77,4.48-5.73,7.24-8.11.58-.5,1.16-.99,1.77-1.45-.36.27.03-.01.12-.07.14-.09.3-.18.43-.27.17-.11.36-.07-.1.02.44-.09-.42-.02-.57-.07-.29-.09-.42-.32-.66-.44-.27-.13.09.27-.03-.04.13.32.2.67.27,1.01-.09-.43,0,.06.01.18.01.19,0,.39,0,.58,0,.12-.08.47.01,0-.05.22-.09.43-.15.64,0,0-.26.64-.11.31s-.18.3-.17.29c-.08.14-.55.74-.26.4-.26.3-.54.56-.82.83-.04.04-.36.3-.06.07-.2.16-.42.3-.63.44-1.45,1-2.84,2.07-4.32,3.03-.7.45-1.41.88-2.16,1.26s-1.15.52-2.04.81c-.59.19-1.18.38-1.79.5-.01,0-.7.09-.3.06s-.27,0-.28,0c-.21.02-.35-.13.1.03-.41-.14.28.21.35.28.39.41.2.32.12.16.32.68.08.26.06.07.09.82.04-.23.05-.46-.04.66.06-.19.13-.43.09-.32.19-.63.31-.94,0-.01.26-.62.1-.26-.14.32.13-.27.16-.33.15-.31.31-.61.48-.91.14-.24.28-.47.43-.7.06-.1.14-.19.2-.29.12-.22-.43.51-.07.1l-4.18-2.43c-.32.92-.7,1.86-1.25,2.52l4.18,1.1c-.04-.17-.09-.92-.07-.25,0-.2-.03-.39-.03-.59s0-.41.02-.62c.01-.14.02-.28.04-.42-.04.31-.04.31,0,.02.22-.98.46-1.94.86-2.86-.19.45.12-.24.13-.26.12-.25.24-.49.37-.73.24-.43.49-.86.77-1.27.08-.12.17-.24.26-.36-.15.19-.17.22-.06.08.15-.19.31-.37.47-.55.13-.14.27-.29.42-.42.1-.1.76-.6.2-.2l-3.67-2.82c-.04.18-.1.36-.16.54.06-.12.06-.1-.01.05-.13.3-.29.59-.44.89-.61,1.2-.31,2.71.9,3.42s2.66.22,3.42-.9c.23-.34.75-.76,1.06-.86l-2.82-1.15c.09.16.16.3.06.05.05.13.07.29.13.42-.18-.4.03-.2-.02.04-.06.27-.05-.35.01-.1,0,0-.04.52-.03.14,0-.21-.11.04.04-.07.26-.19-.14.13-.18.18-.18.21-.14.08.04-.02-.16.08-.78.37-.33.22-.14.05-.28.09-.42.13-.01,0-.63.1-.34.07s-.2,0-.25,0c-.16,0-.32-.02-.48-.02-.36,0,.27.1.02,0-.19-.08-.47-.26.11.06.71.39.94,1.28.81,2.02.01-.08.04-.15.07-.23-.04.11-.28.48-.07.23.08-.1.14-.22.21-.32.04-.06.27-.36.05-.08s.23-.27.32-.36c.73-.84,1.54-1.64,2.15-2.59.73-1.14.24-2.76-.9-3.42-1.21-.71-2.69-.24-3.42.9h0Z"/><path class="cls-5" d="M11.86,10.16c0,.1.1.1.1.2.1.2,0-.1-.1-.2.1.3.2.5.1.2v.6c0,.2,0-.1,0-.1v.2c-.1.4.1-.2,0,.1-.1.1-.2.3-.2.4.2-.3,0,0-.1.1,0,0-.2.2,0,.1s-.1.1-.2.1-.2.1-.2.1c.3-.2.1,0,0,0-.2,0-.3.1-.5.1.3-.1,0,0-.2,0h-.3s-.4,0-.2,0-.3-.1-.4-.1-.5-.2-.4-.1c.2.1-.1,0-.1,0-.1-.1-.2-.1-.3-.2-.1,0-.2-.1-.2-.1,0,0-.3-.2-.2-.1s-.2-.2-.3-.2c-.1-.1-.3-.3-.4-.4l-.2-.2s.2.2,0,0c-.1-.2-.2-.3-.3-.5s-.2-.4-.3-.6c0-.1-.1-.2-.1-.2,0,0,.1.2,0,0-.2-.4-.3-.9-.4-1.3-.1-.4-.2-.8-.3-1.2,0-.1,0-.3-.1-.4,0,0,0,.2,0,0s-.1-.5-.1-.7v-.6c0-.1.1-.6,0-.2,0,0,.1-.3,0-.1,0,.2,0,0,.1-.1,0,0-.2.2-.1.1,0,0,.3-.2.1-.1-.3.2.5-.3.3-.1-.2.1,0,0,.1,0s.2-.1.3-.1c.4-.1.8-.2,1.2-.3.1,0,.2,0,.3-.1.3-.1-.2,0,.1,0h.3c-.3,0,0,0,.1,0,.2,0-.1,0-.1,0,.2.1.1.1,0,0,.3.3-.2-.5-.1-.1.2,1,1.5,1.7,2.5,1.4,1.1-.3,1.6-1.4,1.4-2.5-.2-1.7-1.6-2.7-3-2.9-1.3-.2-2.7.1-4,.5-1.2.4-2.4,1.1-3,2.4-.7,1.4-.4,3-.2,4.5.4,2.5,1.3,5,3.2,6.7,2,1.8,4.9,2.5,7.5,1.3,2.7-1.3,3.9-4.8,2.3-7.3-.5-.9-1.8-1.3-2.7-.7-.9.5-1.3,1.7-.7,2.7h0Z"/><path class="cls-5" d="M2.96,12.56c1.8-1.3,3.8-2.4,5.8-3.3.4-.2.8-.8.9-1.2.1-.5.1-1.1-.2-1.5s-.7-.8-1.2-.9c-.6-.1-1,0-1.5.2-2,1-4,2.1-5.8,3.3-.4.3-.8.7-.9,1.2s-.1,1.1.2,1.5c.5.9,1.8,1.4,2.7.7h0Z"/><path class="cls-5" d="M5.26,15.66c1-.4,2-.9,3-1.3.2-.1.4-.3.6-.5s.3-.4.4-.7c.1-.3.1-.5,0-.8,0-.3-.1-.5-.2-.7-.3-.4-.7-.8-1.2-.9-.2,0-.4,0-.5-.1-.4,0-.7.1-1,.3-1,.4-2,.9-3,1.3-.2.1-.4.3-.6.5-.2.2-.3.4-.4.7-.1.3-.1.5,0,.8,0,.3.1.5.2.7.3.4.7.8,1.2.9.2,0,.4,0,.5.1.4-.1.7-.2,1-.3h0Z"/><path class="cls-2" d="M11.46,3.16S10.06-.04,5.76,1.96s-.8,8.4-.8,8.4c0,0,3.3,5.5,6.7,3.9,3.4-1.5,3-4.2,2.2-6.1"/><line class="cls-2" x1="2.36" y1="9.16" x2="7.66" y2="6.66"/><line class="cls-2" x1="3.36" y1="11.46" x2="8.76" y2="8.96"/><path class="cls-6" d="M92.86,40.56c-4.6-1-9.1-1.8-13.7-2.3-.9-.1-1.8.4-2.1,1.2-.4.9,0,1.7.7,2.3,2.4,2.1,5.7,2.6,8.7,2.9-.2-1.2-.3-2.6-.5-3.8-.9.4-1.8.7-2.7,1-.9.4-1.8.7-2.7,1.1-.9.5-1.6,1.2-2.1,2.1-.2.3-.4.7-.6,1-.1.2.1-.1-.1.1-.2.3.1,0-.1.2-1.7,1.5-.1,4.3,2,3.4,2.9-1.3,5.9-2.5,8.9-3.8,2.4-1,.8-4.7-1.6-3.7-2.9,1.3-5.9,2.5-8.9,3.8.7,1.1,1.4,2.2,2,3.4.7-.6,1.1-1.2,1.5-2.1.1-.1.1-.3.2-.4.3-.6-.1.1.1-.1.1-.1.2-.3.3-.3q-.1,0,.1,0c.8-.4,1.7-.7,2.4-.9.9-.4,1.8-.7,2.7-1,1.9-.7,1.4-3.6-.5-3.8-1.3-.1-2.7-.3-4-.6-1-.2-2.1-.8-3-1.6-.5,1.2-1,2.4-1.4,3.5,4.6.6,9.1,1.3,13.7,2.3,1.1.2,2.1-.7,2.2-1.7.4-1.2-.4-2-1.5-2.2h0Z"/><path class="cls-4" d="M74.46,42.56c-4.3,2.8-8.3-.7-11.5-3.5-1.6-1.5-3.4-2.8-5.3-3.8-2.4-1-5-1.2-7.6-1.2-4.3.1-10,1.3-12.8-3-2.9-4.2-2.8-10.4-2.1-15.4.3-2.3.4-5.8,2.9-7,.7-.3,1.8-.7,2.5-.2,1.1.7.6,2.9.3,3.9-.4,2.1,2.4,2.8,3.5,1.4,1.3-1.4,2.7-3,4.6-3.5,1.9-.4,3.1.7,3.7,2.4,1.4,3.5-2.2,7.9-4.6,10.1-3.1,2.9-7.2,4.1-11.3,4.6-3.9.3-7.6-.3-11-2.4-3.7-2.2-6.6-5.5-9.4-8.6-1.7-1.9-4.9.6-3.2,2.5,3.2,3.5,6.5,7.2,10.6,9.6,4.5,2.7,9.5,3.5,14.7,2.7,5.5-.8,10.3-3.1,14-7.2,3.3-3.9,6.1-9.3,3.1-14.2-1.5-2.5-4.3-3.9-7.2-3.4-3.1.6-5.2,2.8-7.3,5.1,1.2.5,2.4,1,3.5,1.4.5-3.1.3-7-3.2-8.3-2.7-1-6.3.3-8,2.6-.9,1.2-1.3,2.7-1.7,4.2-.4,1.7-.7,3.4-.9,5.1-.4,3.2-.4,6.6.2,9.7s1.6,6.6,3.9,8.9c2.1,2.2,5.1,3.1,8.2,3.4,3,.2,6.1-.4,9.2-.2,2.8.2,5,1.5,7,3.2,2.3,2,4.4,4.1,7.2,5.3,3.4,1.5,7.2,1,10.2-1,.9-.6,1-2,.3-2.8-.5-.9-1.6-.8-2.5-.4h0Z"/><path class="cls-3" d="M77.06,37.66l2.4,5.8-1.5,6.1c0,.2,0,.4.1.6h0c.2.1.4.2.7,0l14.6-7.2c.2-.1.3-.3.3-.6,0-.2-.2-.5-.4-.5l-15.5-5.1c-.2,0-.4,0-.6.1-.2.3-.2.7-.1.8ZM79.26,48.56l1.2-4.6,9.5-.7-10.7,5.3ZM89.86,42.16l-9.6.7-1.7-4.4,11.3,3.7Z"/><path class="cls-1" d="M13.46,16.06c-.1,0-.1.3-.1.4l.8.9c0,.1.1.1.2.1s.1,0,.2-.1c.1,0,.1-.3.1-.4l-.8-.8c-.1-.2-.2-.2-.4-.1Z"/><path class="cls-1" d="M32.46,9.26c.1-.1,0-.3-.2-.4-.1-.1-.3,0-.4.2-.3.7-.5,1.4-.6,2.2-.1.1,0,.3.2.3h.1c.1,0,.2-.1.2-.2.2-.7.4-1.4.7-2.1Z"/><path class="cls-1" d="M49.06,36.46c0,.1.1.3.3.2h0c.6-.1,1.2-.1,1.7-.2h.6c.1,0,.3-.1.2-.2.1-.1-.1-.3-.2-.2-.1-.1-.3,0-.4,0h-.2c-.5,0-1.1,0-1.7.1-.2,0-.2.1-.3.3Z"/><path class="cls-1" d="M31.06,13.56c-.1.7-.1,1.5-.1,2.2-.1.1.1.3.2.2h0c.1.1.3-.1.2-.2,0-.8.1-1.6.1-2.2.1-.1-.1-.3-.2-.3-.1.1-.3.2-.2.3Z"/><path class="cls-1" d="M24.56,26.36c.1-.1.1-.3-.1-.4-.6-.4-1.2-.8-1.8-1.3-.1-.1-.3-.1-.4.1-.1.1-.1.3.1.4.6.5,1.2.9,1.8,1.3l.1.1c.2-.1.3-.1.3-.2Z"/><path class="cls-1" d="M37.96,5.56c.4.1.7.2,1.1.4,0,0,.1,0,.1.1.1,0,.2-.1.2-.2.1-.1,0-.3-.2-.4-.4-.2-.8-.3-1.1-.4-.4-.1-.7-.1-1.1-.2-.1-.1-.3.1-.3.2-.1.1.1.3.2.3.3.1.7.1,1.1.2Z"/><path class="cls-1" d="M17.76,20.56c.1-.1.1-.3,0-.3-.6-.5-1-1.1-1.6-1.6-.1-.1-.3-.1-.4-.1-.1.1-.1.3-.1.4.6.5,1,1.1,1.6,1.6,0,.1.1.1.1.1q.3-.1.4-.1Z"/><path class="cls-1" d="M38.56,36.46c.1-.1,0-.2-.1-.4-.6-.3-1.1-.8-1.7-1.4-.1-.1-.3-.1-.4-.1-.1.1-.1.3-.1.4.6.6,1.2,1.1,1.8,1.4l.1.1q.4.1.4,0Z"/><path class="cls-1" d="M63.66,41.96c-.6-.5-1.1-1.1-1.7-1.4-.1-.1-.3-.1-.4.1-.1.1-.1.3.1.4.5.4,1.1,1,1.7,1.4,0,.1.1.1.1.1q.1,0,.2-.1c.1-.2,0-.4,0-.5Z"/><path class="cls-1" d="M31.06,17.86c-.1-.1-.3.1-.2.3,0,.8.1,1.5.2,2.2,0,.1.1.3.3.2h0c.1,0,.3-.1.2-.3-.1-.7-.1-1.5-.2-2.2,0-.1-.1-.2-.3-.2Z"/><path class="cls-1" d="M55.36,14.46c.1,0,.3-.1.2-.3-.1-.7-.3-1.5-.6-2.2,0-.1-.2-.2-.4-.2-.1,0-.2.2-.2.4.3.6.5,1.4.5,2,.3.2.4.2.5.3h0Z"/><path class="cls-1" d="M41.56,12.86c.5-.4,1-1.2,1.2-1.9l-.3-.1-.3-.1c-.2.7-.7,1.4-1.1,1.8-.1,0-.1.3-.1.4s.1.1.2.1q.4,0,.4-.2Z"/><path class="cls-1" d="M21.06,23.56c.1-.1.1-.3,0-.3-.5-.4-1.1-1-1.6-1.5-.1-.1-.3-.1-.3,0-.1.1-.1.3,0,.3.6.5,1.1,1.1,1.7,1.6,0,.1.1.1.1.1-.1-.1,0-.1.1-.2Z"/><path class="cls-1" d="M53.76,20.66c.1-.1.1-.3-.1-.4-.1-.1-.3-.1-.4.1-.4.6-.8,1.1-1.3,1.8-.1.1-.1.3,0,.3q.1.2.2.1t.2-.1c.5-.6,1-1.2,1.4-1.8Z"/><path class="cls-1" d="M32.26,24.66c-.2-.7-.3-1.5-.4-2.2,0-.1-.1-.3-.3-.2-.1,0-.2.2-.2.3.1.7.3,1.5.4,2.2,0,.1.1.2.3.2h.1c0,.1.2-.1.1-.3Z"/><path class="cls-1" d="M42.66,8.56c-.3-.6-.8-1.3-1.5-1.9-.1-.1-.3,0-.4.1-.1.1-.1.3.1.4.6.5,1.1,1.1,1.3,1.6,0,.1.2.1.3.1h.1c.1,0,.2-.2.1-.3Z"/><path class="cls-1" d="M56.16,36.96c-.7-.2-1.5-.5-2.2-.7-.1-.1-.3,0-.3.2-.1.1,0,.3.2.3.7.1,1.5.4,2.1.6,0,0,.1,0,.1.1.1,0,.2-.1.2-.2.1-.1,0-.3-.1-.3Z"/><path class="cls-1" d="M53.86,10.26c.1,0,.1-.3.1-.4-.5-.7-1-1.2-1.5-1.8-.1-.1-.3-.1-.3,0-.1.1-.1.3,0,.3.6.5,1,1.1,1.5,1.7,0,.2.1.3.2.2-.1.1,0,0,0,0Z"/><path class="cls-1" d="M54.66,18.76s0,.1,0,0c.2,0,.3,0,.4-.2.3-.8.5-1.5.7-2.2.1-.1-.1-.3-.2-.3-.1-.1-.3.1-.3.2-.1.7-.3,1.4-.6,2.1-.3.2-.2.3,0,.4Z"/><path class="cls-1" d="M48.36,6.36c.6.2,1.3.4,2,.8l.1.1c.1,0,.2-.1.3-.1.1-.1,0-.2-.1-.4-.7-.4-1.4-.8-2.1-.9-.1-.1-.3,0-.3.2-.1,0,0,.2.1.3Z"/><path class="cls-1" d="M28.56,28.46c.1-.1,0-.3-.2-.4-.7-.3-1.4-.6-2-1-.1-.1-.3,0-.4.2-.1.1,0,.3.2.4.7.4,1.4.7,2,1,0,0,.1,0,.1.1.1-.1.3-.2.3-.3Z"/><path class="cls-1" d="M60.16,39.46c.1-.1.1-.3-.1-.4-.6-.5-1.3-.8-1.9-1.2-.1-.1-.3,0-.4.2-.1.1,0,.3.2.4.6.4,1.3.8,1.9,1.1l.1.1c.1,0,.1-.1.2-.2Z"/><path class="cls-1" d="M48.66,25.36c0,.1.2.1.3.1,0,0,.1,0,.2-.1.7-.5,1.2-1,1.8-1.4.1,0,.1-.3.1-.4s-.3-.1-.4-.1c-.6.5-1.1.9-1.8,1.4-.4.2-.4.4-.2.5Z"/><path class="cls-1" d="M30.36,29.26c.7.2,1.5.4,2.3.5h0c.1,0,.3-.1.2-.2.1-.1-.1-.3-.2-.3-.7-.1-1.4-.3-2.1-.4-.1-.1-.3,0-.4.2,0,.1.1.2.2.2Z"/><path class="cls-1" d="M47.26,36.96c.1,0,.2-.2.2-.3s-.2-.2-.3-.2l-.4.1c-.6.1-1.2.2-1.8.3-.1,0-.3.1-.2.3,0,.1.1.3.3.2h0c.6-.1,1.2-.2,1.9-.2l.3-.2Z"/><path class="cls-1" d="M47.16,26.26c0-.1-.2-.1-.4-.1-.6.4-1.3.7-1.9,1-.1,0-.2.2-.2.4,0,.1.2.1.3.1h.1c.7-.3,1.3-.7,2-1.1.1,0,.1-.2.1-.3Z"/><path class="cls-1" d="M35.46,32.96c-.4-.6-.7-1.2-1-1.9,0-.1-.2-.2-.4-.1-.1,0-.2.2-.1.4.3.7.7,1.4,1.2,2,0,.1.2.1.3.1h.1c-.1-.2,0-.3-.1-.5Z"/><path class="cls-1" d="M35.96,29.66c-.1.1.1.3.2.2h.1c.8,0,1.5-.1,2.2-.2.1,0,.3-.1.2-.3,0-.1-.1-.3-.3-.2-.7.1-1.4.2-2.1.1h-.1c-.1.1-.3.2-.2.4Z"/><path class="cls-1" d="M33.56,29.06c-.3-.6-.5-1.4-.7-2.1,0-.1-.2-.2-.3-.2s-.2.2-.2.3c.2.8.4,1.5.7,2.2,0,.1.2.1.3.2h.1c0-.2.1-.3.1-.4Z"/><path class="cls-1" d="M44.16,7.56c0,.1.1.1.1.1q.1,0,.2-.1l.1-.1c.4-.5,1-.9,1.6-1.1.1,0,.2-.2.2-.3s-.2-.2-.3-.2c-.7.2-1.2.6-1.9,1.2l-.1.1c.1.2,0,.3.1.4Z"/><path class="cls-1" d="M40.36,37.46c.6.2,1.4.2,2.1.2l.1.1c.1.1.3-.1.2-.2.1-.1-.1-.3-.2-.2h-.1c-.8,0-1.4,0-2-.2-.1-.1-.3,0-.3.2,0-.2.1,0,.2.1Z"/><path class="cls-1" d="M40.76,29.26c.7-.2,1.5-.4,2.2-.7.1,0,.2-.2.2-.3s-.2-.2-.3-.2c-.6.3-1.4.5-2.1.7-.1,0-.2.2-.2.3-.1.1,0,.1.2.2h0Z"/><path class="cls-1" d="M67.46,44.36c-.7-.4-1.4-.7-2-1.1-.1-.1-.3,0-.4.2-.1.1,0,.3.2.4.7.3,1.3.7,2,1,0,.1.1.1.2,0q.1,0,.2-.1c0-.1-.1-.3-.2-.4Z"/><path class="cls-1" d="M71.56,44.86h-2.3c-.1-.1-.3.1-.2.3-.1.1.1.3.3.2.7-.1,1.5-.1,2.2-.1q.1,0,.2-.1c.1,0,.1-.1.1-.1,0-.1-.1-.2-.3-.2Z"/><path class="cls-1" d="M75.46,43.96c-.7.3-1.5.5-2.2.8-.1,0-.2.2-.2.4,0,.1.2.2.4.2.6-.3,1.4-.6,2.1-.8q.1,0,.1-.2c.1,0,.1-.1,0-.2.1-.2,0-.3-.2-.2Z"/><path class="cls-1" d="M35.16,6.26c.1-.1.1-.3,0-.4-.1-.1-.3-.1-.4,0-.5.5-1.1,1-1.5,1.7-.1.1-.1.3.1.4h.1c.1,0,.2,0,.3-.1.3-.6.8-1.2,1.4-1.6Z"/></g></svg>