<?xml version="1.0" encoding="UTF-8"?>
<svg id="Layer_2" data-name="Layer 2" xmlns="http://www.w3.org/2000/svg" viewBox="0 0 1084.65 688.44">
  <defs>
    <style>
      .cls-1 {
        fill: #000;
        stroke-width: 0px;
      }
    </style>
  </defs>
  <g id="Layer_1-2" data-name="Layer 1">
    <g>
      <g>
        <g>
          <path class="cls-1" d="M827.11,7c-138.36,0-250.54,150.73-250.54,336.66s112.16,336.66,250.54,336.66,250.54-150.73,250.54-336.66S965.49,7,827.11,7h0ZM827.11,612.28c-98.93,0-182.5-123.01-182.5-268.62s83.58-268.62,182.5-268.62c70.39,0,185.69,90.21,185.69,268.62s-115.29,268.61-185.69,268.61h0Z"/>
          <path class="cls-1" d="M827.11,687.32c-35.05,0-69.03-9.21-100.98-27.37-30.68-17.44-58.2-42.35-81.79-74.06-48.21-64.79-74.76-150.81-74.76-242.23s26.55-177.44,74.77-242.23c23.59-31.7,51.11-56.62,81.79-74.06,31.96-18.16,65.93-27.37,100.98-27.37s69.03,9.21,100.98,27.37c30.68,17.44,58.2,42.35,81.79,74.06,48.21,64.78,74.76,150.81,74.76,242.23s-26.55,177.45-74.76,242.23c-23.59,31.7-51.11,56.62-81.79,74.06-31.96,18.16-65.93,27.37-100.98,27.37ZM827.11,14c-134.29,0-243.54,147.88-243.54,329.66s109.25,329.66,243.54,329.66,243.54-147.88,243.54-329.66S961.4,14,827.11,14ZM827.11,619.28c-25.5,0-50.4-7.6-74-22.59-22.46-14.26-42.69-34.51-60.13-60.19-35.7-52.55-55.36-121.04-55.36-192.85s19.66-140.3,55.36-192.85c17.45-25.68,37.68-45.93,60.14-60.19,23.6-14.99,48.5-22.59,74-22.59,40.69,0,88.44,26.79,124.61,69.91,31.06,37.03,68.09,102.78,68.09,205.71s-37.02,168.68-68.08,205.71c-34.11,40.67-78.53,66.81-117.61,69.65v.26h-7ZM825.87,605.27h1.24c28.74,0,73.75-17.05,113.89-64.9,29.56-35.25,64.81-97.98,64.81-196.71s-35.25-161.47-64.81-196.72c-40.14-47.85-85.15-64.9-113.88-64.9-22.8,0-45.17,6.87-66.5,20.4-20.83,13.23-39.69,32.15-56.06,56.24-34.14,50.25-52.94,115.95-52.94,184.98s18.8,134.73,52.94,184.98c16.37,24.09,35.23,43.01,56.06,56.24,20.94,13.29,42.89,20.15,65.26,20.4Z"/>
        </g>
        <g>
          <path class="cls-1" d="M257.54,8.12C119.18,8.12,7,158.85,7,344.78s112.16,336.66,250.54,336.66,250.54-150.73,250.54-336.66S395.92,8.12,257.54,8.12h0ZM257.54,613.4c-98.93,0-182.5-123.01-182.5-268.62S158.62,76.16,257.54,76.16c70.39,0,185.69,90.21,185.69,268.62s-115.29,268.61-185.69,268.61h0Z"/>
          <path class="cls-1" d="M257.54,688.44c-35.05,0-69.03-9.21-100.98-27.37-30.68-17.44-58.2-42.35-81.79-74.06C26.55,522.23,0,436.2,0,344.78S26.55,167.34,74.77,102.55c23.59-31.7,51.11-56.62,81.79-74.06C188.52,10.33,222.49,1.12,257.54,1.12s69.03,9.21,100.98,27.37c30.68,17.44,58.2,42.35,81.79,74.06,48.21,64.79,74.76,150.81,74.76,242.23s-26.55,177.45-74.76,242.23c-23.59,31.7-51.11,56.62-81.79,74.06-31.96,18.16-65.93,27.37-100.98,27.37ZM257.54,15.12C123.25,15.12,14,163.01,14,344.78s109.25,329.66,243.54,329.66,243.54-147.88,243.54-329.66S391.83,15.12,257.54,15.12ZM257.54,620.4c-25.5,0-50.4-7.6-74-22.59-22.46-14.26-42.69-34.51-60.13-60.19-35.7-52.55-55.36-121.04-55.36-192.85s19.66-140.3,55.36-192.85c17.45-25.68,37.68-45.93,60.14-60.19,23.6-14.99,48.5-22.59,74-22.59,40.69,0,88.44,26.79,124.61,69.91,31.06,37.03,68.09,102.78,68.09,205.71s-37.02,168.68-68.08,205.71c-34.11,40.67-78.53,66.81-117.61,69.65v.26h-7ZM256.39,606.4h1.15c28.74,0,73.75-17.05,113.89-64.9,29.56-35.25,64.81-97.99,64.81-196.71s-35.25-161.47-64.81-196.72c-40.14-47.85-85.15-64.9-113.88-64.9-22.8,0-45.17,6.87-66.5,20.4-20.83,13.23-39.69,32.15-56.06,56.24-34.14,50.25-52.94,115.95-52.94,184.98s18.8,134.73,52.94,184.98c16.36,24.09,35.23,43.01,56.06,56.23,20.97,13.31,42.95,20.17,65.35,20.4Z"/>
        </g>
      </g>
      <g>
        <circle class="cls-1" cx="311.41" cy="495.17" r="134.89"/>
        <path class="cls-1" d="M311.41,637.06c-78.24,0-141.89-63.65-141.89-141.89s63.65-141.89,141.89-141.89,141.89,63.65,141.89,141.89-63.65,141.89-141.89,141.89ZM311.41,367.29c-70.52,0-127.89,57.37-127.89,127.89s57.37,127.89,127.89,127.89,127.89-57.37,127.89-127.89-57.37-127.89-127.89-127.89Z"/>
      </g>
      <g>
        <circle class="cls-1" cx="903" cy="495.17" r="134.89"/>
        <path class="cls-1" d="M903,637.06c-78.24,0-141.89-63.65-141.89-141.89s63.65-141.89,141.89-141.89,141.89,63.65,141.89,141.89-63.65,141.89-141.89,141.89ZM903,367.29c-70.52,0-127.89,57.37-127.89,127.89s57.37,127.89,127.89,127.89,127.89-57.37,127.89-127.89-57.37-127.89-127.89-127.89Z"/>
      </g>
    </g>
  </g>
</svg>