<?xml version="1.0" encoding="utf-8"?>
<!-- Generator: Adobe Illustrator 28.3.0, SVG Export Plug-In . SVG Version: 6.00 Build 0)  -->
<svg version="1.1" id="Layer_1" xmlns="http://www.w3.org/2000/svg" xmlns:xlink="http://www.w3.org/1999/xlink" x="0px" y="0px"
	 viewBox="0 0 292 81" style="enable-background:new 0 0 292 81;" xml:space="preserve">
<style type="text/css">
	.st0{fill:#FFE468;}
</style>
<path d="M46.8,19.5v-5.8h6.5v5.8H46.8z M46.8,49V23.1h6.5V49H46.8z M58.2,49v-0.8l12.7-19.4H59.6v-5.7H81v0.8L68.3,43.3h12.2V49
	H58.2z M93.3,49l-9.4-25.9h6.5l6.1,18l6.1-18h6.5L99.8,49H93.3z M124.3,49.7c-2.6,0-4.9-0.6-6.9-1.8c-2-1.2-3.5-2.8-4.6-4.8
	c-1.1-2.1-1.6-4.4-1.6-7.1c0-2.7,0.6-5.1,1.7-7.1c1.1-2.1,2.7-3.7,4.6-4.8c2-1.2,4.2-1.7,6.8-1.7c2.6,0,4.9,0.6,6.9,1.8
	c2,1.2,3.5,2.8,4.6,4.8c1.1,2,1.7,4.4,1.7,7.1c0,2.7-0.6,5.1-1.7,7.1c-1.1,2-2.6,3.7-4.6,4.8C129.1,49.1,126.8,49.7,124.3,49.7z
	 M124.3,43.6c2.1,0,3.7-0.7,4.7-2.1c1-1.4,1.6-3.2,1.6-5.5c0-2.3-0.5-4.1-1.6-5.5c-1-1.4-2.6-2.1-4.7-2.1c-1.4,0-2.6,0.3-3.5,1
	c-0.9,0.6-1.6,1.5-2,2.7c-0.4,1.1-0.6,2.5-0.6,4c0,2.3,0.5,4.2,1.6,5.5C120.7,42.9,122.2,43.6,124.3,43.6z M143.2,49V13.7h6.5V49
	H143.2z M157.4,19.5v-5.8h6.5v5.8H157.4z M157.4,49V23.1h6.5V49H157.4z M172.1,49v-6.5h6.5V49H172.1z M186.5,49V14.4H209v6.1h-16
	v7.4h13.2V34H193v8.9h16V49H186.5z M228.8,49.7c-2.8,0-5.2-0.6-7.3-1.7c-2.1-1.1-3.8-2.7-4.9-4.8s-1.8-4.5-1.8-7.2V14.5l6.6,0V36
	c0,1.1,0.2,2.2,0.6,3.1c0.4,0.9,0.9,1.7,1.6,2.4c0.7,0.7,1.5,1.2,2.4,1.6c0.9,0.4,1.9,0.5,2.9,0.5c1.1,0,2-0.2,2.9-0.6
	c0.9-0.4,1.7-0.9,2.4-1.6c0.7-0.7,1.2-1.5,1.6-2.4c0.4-0.9,0.6-2,0.6-3.1V14.4h6.6V36c0,2.8-0.6,5.2-1.8,7.2c-1.2,2-2.8,3.6-4.9,4.8
	C234.1,49.2,231.6,49.7,228.8,49.7z"/>
<path d="M13.2,74.3c-1,0-1.8-0.2-2.5-0.8C10,73,9.5,72.4,9.2,71.5c-0.4-0.9-0.5-1.8-0.5-2.9c0-1.1,0.2-2.1,0.5-2.9
	c0.4-0.9,0.9-1.5,1.6-2s1.5-0.7,2.6-0.7c1,0,1.8,0.2,2.5,0.8c0.7,0.5,1.2,1.2,1.6,2c0.4,0.9,0.6,1.8,0.6,2.9c0,1.1-0.2,2.1-0.6,2.9
	c-0.4,0.9-0.9,1.5-1.6,2.1C15.1,74.1,14.3,74.3,13.2,74.3z M8.4,78.8V63.2h1.3v8.1h0.2v7.5H8.4z M13.1,72.9c0.8,0,1.4-0.2,1.9-0.6
	s0.9-0.9,1.1-1.6c0.3-0.7,0.4-1.4,0.4-2.2c0-0.8-0.1-1.5-0.4-2.2s-0.6-1.2-1.1-1.6c-0.5-0.4-1.1-0.6-1.9-0.6c-0.8,0-1.4,0.2-1.9,0.6
	c-0.5,0.4-0.9,0.9-1.1,1.5c-0.2,0.6-0.4,1.4-0.4,2.2c0,0.8,0.1,1.6,0.4,2.2c0.2,0.7,0.6,1.2,1.1,1.5C11.7,72.7,12.3,72.9,13.1,72.9z
	 M20.2,74V63.2h1.3v2.6l-0.3-0.3c0.1-0.3,0.3-0.6,0.5-0.9c0.2-0.3,0.4-0.5,0.6-0.7c0.3-0.2,0.6-0.4,1-0.6c0.4-0.1,0.8-0.2,1.1-0.2
	c0.4,0,0.7,0,1,0.1v1.4c-0.4-0.1-0.8-0.1-1.3-0.1c-0.5,0.1-0.9,0.2-1.3,0.6c-0.4,0.3-0.6,0.6-0.8,1c-0.2,0.4-0.3,0.8-0.4,1.2
	c-0.1,0.4-0.1,0.9-0.1,1.3V74H20.2z M30.4,74l-3.9-10.8h1.5l3.2,8.9l3.2-8.9h1.5L31.9,74H30.4z M40.1,74.3c-0.8,0-1.5-0.1-2.1-0.4
	c-0.5-0.3-1-0.7-1.2-1.2c-0.3-0.5-0.4-1-0.4-1.6c0-0.6,0.1-1.1,0.4-1.5c0.2-0.4,0.6-0.8,1-1c0.4-0.3,0.9-0.5,1.4-0.6
	c0.5-0.1,1.2-0.2,1.8-0.3c0.7-0.1,1.3-0.2,2-0.3c0.6-0.1,1.2-0.2,1.7-0.2l-0.5,0.3c0-1.1-0.2-1.9-0.6-2.4c-0.4-0.5-1.2-0.8-2.3-0.8
	c-0.7,0-1.4,0.2-1.9,0.5c-0.5,0.3-0.9,0.9-1.1,1.6l-1.4-0.4c0.2-1,0.7-1.7,1.5-2.2c0.7-0.5,1.7-0.8,2.9-0.8c1,0,1.8,0.2,2.5,0.6
	c0.7,0.4,1.2,0.9,1.5,1.6c0.1,0.3,0.2,0.7,0.3,1.1c0,0.4,0.1,0.8,0.1,1.2V74h-1.3v-2.7l0.4,0.2c-0.4,0.9-0.9,1.6-1.7,2.1
	C42.1,74.1,41.2,74.3,40.1,74.3z M40.3,73c0.7,0,1.3-0.1,1.8-0.4c0.5-0.2,0.9-0.6,1.2-1c0.3-0.4,0.5-0.9,0.6-1.5
	c0.1-0.3,0.1-0.7,0.1-1.1c0-0.4,0-0.7,0-0.9l0.6,0.3c-0.5,0.1-1,0.1-1.6,0.2c-0.6,0.1-1.2,0.1-1.7,0.2c-0.6,0.1-1.1,0.2-1.5,0.3
	c-0.3,0.1-0.6,0.2-0.9,0.4c-0.3,0.2-0.5,0.4-0.7,0.6c-0.2,0.3-0.3,0.6-0.3,1c0,0.3,0.1,0.6,0.2,0.9c0.2,0.3,0.4,0.5,0.8,0.7
	C39.2,72.9,39.7,73,40.3,73z M57,74.3c-1,0-1.8-0.2-2.5-0.8c-0.7-0.5-1.2-1.2-1.6-2.1c-0.4-0.9-0.5-1.8-0.5-2.9
	c0-1.1,0.2-2.1,0.5-2.9c0.4-0.9,0.9-1.5,1.6-2c0.7-0.5,1.5-0.7,2.6-0.7c1,0,1.8,0.2,2.5,0.8c0.7,0.5,1.2,1.2,1.6,2
	c0.4,0.9,0.6,1.8,0.6,2.9c0,1.1-0.2,2.1-0.6,2.9s-0.9,1.5-1.6,2.1C58.8,74.1,58,74.3,57,74.3z M52.1,78.8V63.2h1.3v8.1h0.2v7.5H52.1
	z M56.8,72.9c0.8,0,1.4-0.2,1.9-0.6s0.9-0.9,1.1-1.6c0.3-0.7,0.4-1.4,0.4-2.2c0-0.8-0.1-1.5-0.4-2.2c-0.2-0.7-0.6-1.2-1.1-1.6
	c-0.5-0.4-1.1-0.6-1.9-0.6c-0.8,0-1.4,0.2-1.9,0.6c-0.5,0.4-0.9,0.9-1.1,1.5c-0.2,0.6-0.4,1.4-0.4,2.2c0,0.8,0.1,1.6,0.4,2.2
	c0.2,0.7,0.6,1.2,1.1,1.5C55.4,72.7,56,72.9,56.8,72.9z M68.5,74.3c-1.1,0-2-0.2-2.8-0.7s-1.3-1.2-1.8-2c-0.4-0.9-0.6-1.8-0.6-3
	c0-1.1,0.2-2.1,0.6-3c0.4-0.9,1-1.5,1.8-2c0.8-0.5,1.7-0.7,2.7-0.7c1.1,0,2,0.2,2.8,0.7c0.8,0.5,1.3,1.2,1.8,2
	c0.4,0.9,0.6,1.8,0.6,2.9c0,1.1-0.2,2.1-0.6,3c-0.4,0.9-1,1.5-1.8,2C70.4,74.1,69.5,74.3,68.5,74.3z M68.5,72.9
	c1.2,0,2.1-0.4,2.7-1.2c0.6-0.8,0.9-1.8,0.9-3.1c0-1.3-0.3-2.3-0.9-3.1c-0.6-0.8-1.5-1.2-2.7-1.2c-0.8,0-1.5,0.2-2,0.6
	c-0.5,0.4-0.9,0.9-1.2,1.5c-0.3,0.6-0.4,1.4-0.4,2.2c0,1.3,0.3,2.3,0.9,3.1C66.4,72.5,67.3,72.9,68.5,72.9z M88.7,74l0-7.1
	c0-0.8-0.2-1.5-0.7-2c-0.5-0.5-1-0.7-1.8-0.7c-0.4,0-0.8,0.1-1.2,0.3c-0.4,0.2-0.7,0.5-1,0.9c-0.2,0.4-0.4,1-0.4,1.6l-0.9-0.2
	c0-0.8,0.1-1.4,0.4-2c0.3-0.6,0.8-1,1.3-1.3c0.6-0.3,1.2-0.5,1.9-0.5c1.1,0,2,0.3,2.6,1c0.7,0.7,1,1.6,1,2.7l0,7.4H88.7z M75.8,74
	V63.2h1.3v2.7h0.2V74H75.8z M82.2,74l0-7c0-0.9-0.2-1.5-0.7-2c-0.5-0.5-1.1-0.8-1.8-0.8s-1.3,0.3-1.8,0.8c-0.5,0.5-0.7,1.2-0.7,2
	l-0.9-0.5c0-0.7,0.2-1.3,0.5-1.9c0.3-0.6,0.8-1,1.3-1.3c0.6-0.3,1.2-0.5,1.9-0.5c0.7,0,1.3,0.1,1.8,0.4c0.5,0.3,1,0.7,1.3,1.3
	c0.3,0.6,0.5,1.2,0.5,2l0,7.3H82.2z M97.2,74.3c-1.1,0-2-0.2-2.8-0.7s-1.3-1.2-1.8-2c-0.4-0.9-0.6-1.8-0.6-3c0-1.1,0.2-2.1,0.6-3
	c0.4-0.9,1-1.5,1.8-2c0.8-0.5,1.7-0.7,2.7-0.7c1.1,0,2,0.2,2.8,0.7c0.8,0.5,1.3,1.2,1.7,2c0.4,0.9,0.6,1.8,0.6,2.9
	c0,1.1-0.2,2.1-0.6,3c-0.4,0.9-1,1.5-1.8,2C99.2,74.1,98.3,74.3,97.2,74.3z M97.2,72.9c1.2,0,2.1-0.4,2.7-1.2
	c0.6-0.8,0.9-1.8,0.9-3.1c0-1.3-0.3-2.3-0.9-3.1c-0.6-0.8-1.5-1.2-2.7-1.2c-0.8,0-1.5,0.2-2,0.6c-0.5,0.4-0.9,0.9-1.2,1.5
	c-0.3,0.6-0.4,1.4-0.4,2.2c0,1.3,0.3,2.3,0.9,3.1C95.1,72.5,96,72.9,97.2,72.9z M106,58.8h1.5l1.5,1.7l1.5-1.7h1.5l-2.3,2.7h-1.4
	L106,58.8z M109,74.3c-1.1,0-2-0.2-2.8-0.7c-0.8-0.5-1.3-1.2-1.7-2c-0.4-0.9-0.6-1.8-0.6-3c0-1.1,0.2-2.1,0.6-3c0.4-0.9,1-1.5,1.7-2
	c0.8-0.5,1.7-0.7,2.7-0.7c1.1,0,2,0.3,2.8,0.8c0.8,0.5,1.4,1.3,1.7,2.2l-1.4,0.5c-0.3-0.6-0.7-1.1-1.2-1.5c-0.5-0.4-1.2-0.5-1.9-0.5
	c-0.8,0-1.4,0.2-2,0.6c-0.5,0.4-0.9,0.9-1.2,1.5c-0.3,0.6-0.4,1.4-0.4,2.2c0,1.3,0.3,2.3,0.9,3.1c0.6,0.8,1.5,1.2,2.6,1.2
	c0.7,0,1.4-0.2,1.9-0.5c0.5-0.3,0.9-0.8,1.2-1.5l1.5,0.4c-0.4,1-1,1.7-1.8,2.2C111,74.1,110.1,74.3,109,74.3z M118.6,74v-0.3l7-9.1
	h-6.4v-1.4h8.9v0.3l-7,9.1h6.6V74H118.6z M132.7,74.3c-0.8,0-1.5-0.1-2.1-0.4c-0.5-0.3-1-0.7-1.2-1.2c-0.3-0.5-0.4-1-0.4-1.6
	c0-0.6,0.1-1.1,0.4-1.5c0.2-0.4,0.6-0.8,1-1c0.4-0.3,0.9-0.5,1.4-0.6c0.5-0.1,1.1-0.2,1.8-0.3c0.7-0.1,1.3-0.2,1.9-0.3
	c0.6-0.1,1.2-0.2,1.7-0.2l-0.5,0.3c0-1.1-0.2-1.9-0.6-2.4c-0.4-0.5-1.2-0.8-2.3-0.8c-0.7,0-1.4,0.2-1.9,0.5
	c-0.5,0.3-0.9,0.9-1.1,1.6l-1.4-0.4c0.2-1,0.7-1.7,1.5-2.2c0.7-0.5,1.7-0.8,2.9-0.8c1,0,1.8,0.2,2.5,0.6c0.7,0.4,1.2,0.9,1.5,1.6
	c0.1,0.3,0.2,0.7,0.3,1.1c0,0.4,0.1,0.8,0.1,1.2V74h-1.3v-2.7l0.4,0.2c-0.4,0.9-0.9,1.6-1.7,2.1S133.7,74.3,132.7,74.3z M132.8,73
	c0.7,0,1.3-0.1,1.8-0.4c0.5-0.2,0.9-0.6,1.2-1c0.3-0.4,0.5-0.9,0.6-1.5c0.1-0.3,0.1-0.7,0.1-1.1c0-0.4,0-0.7,0-0.9l0.6,0.3
	c-0.5,0.1-1,0.1-1.6,0.2c-0.6,0.1-1.2,0.1-1.7,0.2c-0.6,0.1-1.1,0.2-1.5,0.3c-0.3,0.1-0.6,0.2-0.9,0.4c-0.3,0.2-0.5,0.4-0.7,0.6
	c-0.2,0.3-0.3,0.6-0.3,1c0,0.3,0.1,0.6,0.2,0.9c0.2,0.3,0.4,0.5,0.8,0.7C131.8,72.9,132.3,73,132.8,73z M149.3,74.3
	c-1.1,0-2-0.2-2.7-0.7c-0.8-0.5-1.4-1.1-1.8-2c-0.4-0.8-0.6-1.8-0.6-3c0-1.2,0.2-2.2,0.6-3.1c0.4-0.9,1-1.5,1.8-2
	c0.8-0.5,1.7-0.7,2.7-0.7c1.1,0,2,0.2,2.7,0.7c0.8,0.5,1.3,1.2,1.7,2.1c0.4,0.9,0.6,2,0.5,3.3h-1.5v-0.5c0-1.4-0.3-2.5-0.9-3.2
	c-0.6-0.7-1.4-1.1-2.5-1.1c-1.2,0-2.1,0.4-2.7,1.1c-0.6,0.8-0.9,1.8-0.9,3.2c0,1.4,0.3,2.4,0.9,3.2c0.6,0.7,1.5,1.1,2.6,1.1
	c0.8,0,1.4-0.2,2-0.5c0.6-0.4,1-0.9,1.4-1.6l1.4,0.5c-0.4,0.9-1.1,1.7-1.9,2.2C151.2,74,150.3,74.3,149.3,74.3z M145.1,69v-1.2h8.2
	V69H145.1z M158.9,74L155,63.2h1.5l3.2,8.9l3.2-8.9h1.5L160.4,74H158.9z M166.2,74V63.2h1.3v2.6l-0.3-0.3c0.1-0.3,0.3-0.6,0.5-0.9
	c0.2-0.3,0.4-0.5,0.6-0.7c0.3-0.2,0.6-0.4,1-0.6c0.4-0.1,0.8-0.2,1.1-0.2c0.4,0,0.7,0,1,0.1v1.4c-0.4-0.1-0.8-0.1-1.3-0.1
	c-0.5,0.1-0.9,0.2-1.3,0.6c-0.4,0.3-0.6,0.6-0.8,1c-0.2,0.4-0.3,0.8-0.4,1.2c-0.1,0.4-0.1,0.9-0.1,1.3V74H166.2z M177.7,74.3
	c-1.1,0-2-0.2-2.8-0.7c-0.8-0.5-1.3-1.2-1.8-2c-0.4-0.9-0.6-1.8-0.6-3c0-1.1,0.2-2.1,0.6-3c0.4-0.9,1-1.5,1.8-2
	c0.8-0.5,1.7-0.7,2.7-0.7c1.1,0,2,0.2,2.8,0.7c0.8,0.5,1.3,1.2,1.8,2c0.4,0.9,0.6,1.8,0.6,2.9c0,1.1-0.2,2.1-0.6,3
	c-0.4,0.9-1,1.5-1.8,2C179.7,74.1,178.7,74.3,177.7,74.3z M177.7,72.9c1.2,0,2.1-0.4,2.7-1.2c0.6-0.8,0.9-1.8,0.9-3.1
	c0-1.3-0.3-2.3-0.9-3.1c-0.6-0.8-1.5-1.2-2.7-1.2c-0.8,0-1.5,0.2-2,0.6c-0.5,0.4-0.9,0.9-1.2,1.5c-0.3,0.6-0.4,1.4-0.4,2.2
	c0,1.3,0.3,2.3,0.9,3.1C175.6,72.5,176.5,72.9,177.7,72.9z M189.9,74.3c-1,0-1.8-0.2-2.5-0.8c-0.7-0.5-1.2-1.2-1.6-2.1
	c-0.4-0.9-0.5-1.8-0.5-2.9c0-1.1,0.2-2.1,0.5-2.9c0.4-0.9,0.9-1.5,1.6-2c0.7-0.5,1.5-0.7,2.6-0.7c1,0,1.8,0.2,2.5,0.8
	c0.7,0.5,1.2,1.2,1.6,2c0.4,0.9,0.6,1.8,0.6,2.9c0,1.1-0.2,2.1-0.6,2.9c-0.4,0.9-0.9,1.5-1.6,2.1C191.7,74.1,190.9,74.3,189.9,74.3z
	 M185,78.8V63.2h1.3v8.1h0.2v7.5H185z M189.7,72.9c0.8,0,1.4-0.2,1.9-0.6s0.9-0.9,1.1-1.6c0.3-0.7,0.4-1.4,0.4-2.2
	c0-0.8-0.1-1.5-0.4-2.2c-0.2-0.7-0.6-1.2-1.1-1.6c-0.5-0.4-1.1-0.6-1.9-0.6c-0.8,0-1.4,0.2-1.9,0.6c-0.5,0.4-0.9,0.9-1.1,1.5
	c-0.2,0.6-0.4,1.4-0.4,2.2c0,0.8,0.1,1.6,0.4,2.2c0.2,0.7,0.6,1.2,1.1,1.5C188.3,72.7,188.9,72.9,189.7,72.9z M200.8,74.3
	c-1.3,0-2.3-0.3-3.1-0.8c-0.8-0.5-1.3-1.3-1.5-2.3l1.5-0.2c0.2,0.6,0.5,1.1,1.1,1.5c0.6,0.4,1.3,0.5,2.1,0.5c0.8,0,1.5-0.2,1.9-0.5
	c0.5-0.3,0.7-0.8,0.7-1.4c0-0.3-0.1-0.6-0.2-0.8c-0.1-0.2-0.4-0.4-0.9-0.6s-1.1-0.4-2.1-0.6c-1-0.3-1.7-0.5-2.3-0.8
	s-0.9-0.6-1.2-0.9c-0.2-0.4-0.4-0.8-0.4-1.3c0-0.6,0.2-1.2,0.5-1.6c0.3-0.5,0.8-0.8,1.4-1.1c0.6-0.3,1.3-0.4,2.1-0.4
	c0.8,0,1.5,0.1,2.2,0.4c0.6,0.3,1.2,0.6,1.6,1.1c0.4,0.5,0.6,1,0.7,1.7l-1.5,0.3c-0.1-0.6-0.4-1.1-0.9-1.5c-0.5-0.4-1.2-0.6-2-0.6
	c-0.8,0-1.4,0.1-1.9,0.4c-0.5,0.3-0.7,0.7-0.7,1.2c0,0.3,0.1,0.5,0.3,0.7c0.2,0.2,0.5,0.4,0.9,0.6c0.5,0.2,1.1,0.4,2,0.6
	c1,0.3,1.8,0.5,2.3,0.8c0.6,0.3,1,0.6,1.2,1c0.2,0.4,0.4,0.8,0.4,1.4c0,1-0.4,1.8-1.1,2.4C203.1,74,202.1,74.3,200.8,74.3z
	 M207.2,74l0-14.4h1.5v8.8l4.8-5.2h2l-5.1,5.4l5.7,5.4H214l-5.3-5.2V74H207.2z M221.5,74.3c-1.1,0-2-0.2-2.7-0.7
	c-0.8-0.5-1.4-1.1-1.8-2c-0.4-0.8-0.6-1.8-0.6-3c0-1.2,0.2-2.2,0.6-3.1c0.4-0.9,1-1.5,1.8-2c0.8-0.5,1.7-0.7,2.7-0.7
	c1.1,0,2,0.2,2.7,0.7c0.8,0.5,1.3,1.2,1.7,2.1c0.4,0.9,0.6,2,0.5,3.3H225v-0.5c0-1.4-0.3-2.5-0.9-3.2c-0.6-0.7-1.4-1.1-2.5-1.1
	c-1.2,0-2.1,0.4-2.7,1.1c-0.6,0.8-0.9,1.8-0.9,3.2c0,1.4,0.3,2.4,0.9,3.2c0.6,0.7,1.5,1.1,2.6,1.1c0.8,0,1.4-0.2,2-0.5
	c0.6-0.4,1-0.9,1.4-1.6l1.4,0.5c-0.4,0.9-1.1,1.7-1.9,2.2C223.5,74,222.6,74.3,221.5,74.3z M217.4,69v-1.2h8.2V69H217.4z M235.6,74
	l-3.9-10.8h1.5l3.2,8.9l3.2-8.9h1.5L237.1,74H235.6z M247,74.3c-1.1,0-2-0.2-2.8-0.7c-0.8-0.5-1.3-1.2-1.8-2s-0.6-1.8-0.6-3
	c0-1.1,0.2-2.1,0.6-3c0.4-0.9,1-1.5,1.8-2c0.8-0.5,1.7-0.7,2.7-0.7c1.1,0,2,0.2,2.8,0.7c0.8,0.5,1.4,1.2,1.8,2
	c0.4,0.9,0.6,1.8,0.6,2.9c0,1.1-0.2,2.1-0.6,3c-0.4,0.9-1,1.5-1.8,2C248.9,74.1,248,74.3,247,74.3z M247,72.9c1.2,0,2.1-0.4,2.7-1.2
	c0.6-0.8,0.9-1.8,0.9-3.1c0-1.3-0.3-2.3-0.9-3.1c-0.6-0.8-1.5-1.2-2.7-1.2c-0.8,0-1.5,0.2-2,0.6c-0.5,0.4-0.9,0.9-1.2,1.5
	c-0.3,0.6-0.4,1.4-0.4,2.2c0,1.3,0.3,2.3,0.9,3.1C244.9,72.5,245.8,72.9,247,72.9z M254.5,74V59.3h1.5V74H254.5z M259.1,61.2v-1.7
	h1.5v1.7H259.1z M259.1,74V63.2h1.5V74H259.1z M269.5,74c-0.6,0.1-1.2,0.2-1.8,0.2c-0.6,0-1.1-0.2-1.6-0.4c-0.5-0.2-0.8-0.6-1-1.1
	c-0.2-0.4-0.3-0.8-0.3-1.2c0-0.4,0-0.9,0-1.4v-9.9h1.5V70c0,0.5,0,0.8,0,1.1c0,0.3,0.1,0.6,0.2,0.8c0.2,0.4,0.6,0.7,1.1,0.8
	c0.5,0.1,1.2,0.1,1.9-0.1V74z M262.4,64.5v-1.3h7.1v1.3H262.4z M274.5,74l-3.9-10.8h1.5l3.2,8.9l3.2-8.9h1.5L276.1,74H274.5z
	 M286,74.3c-1.1,0-2-0.2-2.7-0.7c-0.8-0.5-1.4-1.1-1.8-2c-0.4-0.8-0.6-1.8-0.6-3c0-1.2,0.2-2.2,0.6-3.1c0.4-0.9,1-1.5,1.8-2
	c0.8-0.5,1.7-0.7,2.7-0.7c1.1,0,2,0.2,2.7,0.7c0.8,0.5,1.3,1.2,1.7,2.1c0.4,0.9,0.6,2,0.5,3.3h-1.5v-0.5c0-1.4-0.3-2.5-0.9-3.2
	c-0.6-0.7-1.4-1.1-2.5-1.1c-1.2,0-2,0.4-2.7,1.1c-0.6,0.8-0.9,1.8-0.9,3.2c0,1.4,0.3,2.4,0.9,3.2c0.6,0.7,1.5,1.1,2.6,1.1
	c0.8,0,1.4-0.2,2-0.5c0.6-0.4,1-0.9,1.4-1.6l1.4,0.5c-0.4,0.9-1.1,1.7-1.9,2.2C287.9,74,287,74.3,286,74.3z M281.8,69v-1.2h8.2V69
	H281.8z"/>
<g>
	<path class="st0" d="M246.3,59.3c-0.3,0-0.6-0.2-0.8-0.3c-0.2-0.2-0.4-0.5-0.5-0.9c-0.2-0.5-0.1-0.9,0-1.2c0.2-0.5,0.2-1,0.2-1.4
		c0.1-0.5,0.1-1.1,0.2-1.6c0-0.4,0.1-0.9,0.2-1.3c0.1-0.7,0.2-1.3,0.3-2c0.2-1.3,0.4-2.7,0.7-4c0.2-1,0.4-2,0.6-3
		c0-0.2,0.1-0.4,0.1-0.5l0-0.2c0.1-0.3,0.1-0.6-0.1-0.9c-0.1-0.3-0.4-0.5-0.7-0.5l-0.8-0.3c-0.7-0.3-1.5-0.5-2.2-0.8
		c-0.3-0.1-0.7-0.3-1-0.4c-0.7-0.3-1.4-0.5-2-0.9c-1.2-0.5-2.5-1.1-3.4-1.6c-0.2-0.1-0.5-0.3-0.7-0.4c-0.3-0.2-0.6-0.4-1-0.5
		c-0.4-0.2-0.8-0.5-1.1-0.9c-0.2-0.2-0.2-0.3-0.3-0.5c0-0.2,0-0.3,0.1-0.5c0.3-0.6,0.8-1,1.4-1.2c0.6-0.3,1.1-0.5,1.7-0.6l0.6-0.2
		c0.7-0.3,1.5-0.5,2.2-0.8c0.2-0.1,0.5-0.1,0.8-0.2c0.2-0.1,0.4-0.1,0.6-0.2l2.1-0.6c0.1,0,0.2-0.1,0.4-0.1c0.1,0,0.2-0.1,0.3-0.1
		l1.7-0.4l0.5-0.1c0.6-0.1,1.2-0.3,1.7-0.4c0.5-0.1,1-0.3,1.4-0.4c0,0,0.1,0,0.1,0c0.3-0.2,0.6-0.4,0.6-0.8c0.1-0.5,0.2-0.9,0.3-1.3
		l0.1-0.5c0.1-0.6,0.3-1.2,0.4-1.8l0.6-2.8c0.2-0.8,0.4-1.6,0.6-2.4l0.3-1.2c0.2-0.8,0.4-1.5,0.6-2.3c0.2-0.6,0.4-1.3,0.6-1.9
		l0.2-0.5c0.2-0.6,0.4-1.3,0.7-1.9c0.1-0.3,0.3-0.6,0.5-0.8c0.1-0.1,0.3-0.2,0.5-0.3c0.1,0,0.2,0,0.3,0c0.1,0,0.2,0,0.3,0
		c0.5,0.1,1,0.4,1.3,0.8c0.6,0.6,1.1,1.2,1.6,1.9c0.4,0.5,0.8,1.1,1.1,1.7l0.2,0.3c0.5,0.8,1,1.6,1.5,2.5l0.4,0.7
		c0.4,0.7,0.8,1.3,1.2,2c0.4,0.6,0.7,1.2,1.1,1.9c0.3,0.6,0.6,1.2,0.8,1.8l0.1,0.2c0,0.1,0.1,0.3,0.2,0.5c0,0,0.1,0.1,0.1,0.1
		c0.2,0.2,0.5,0.4,0.8,0.4c0,0,0,0,0.1,0c0,0,0.1,0,0.1,0c0.2,0,0.4-0.1,0.5-0.1l2.7-0.7c0.5-0.1,0.9-0.2,1.4-0.4l2.3-0.7l3.3-0.8
		c0.4-0.1,0.8-0.2,1.2-0.3c0.1,0,0.3-0.1,0.4-0.1c0,0,0.1,0,0.1-0.1c0,0,0.1,0,0.1,0c0.1-0.1,0.3-0.1,0.4-0.1c0.2,0,0.4,0.1,0.6,0.2
		c0.1,0.1,0.2,0.2,0.3,0.4c0.1,0.2,0.1,0.3,0.1,0.5c-0.1,0.3-0.2,0.7-0.4,0.9l-0.2,0.3c-0.1,0.2-0.3,0.4-0.4,0.6
		c-0.6,0.9-1.3,1.7-2,2.5c-0.4,0.4-0.8,0.8-1.2,1.3c-0.3,0.3-0.6,0.6-0.9,1c-0.3,0.3-0.7,0.7-1,1c-0.4,0.4-0.8,0.8-1.2,1.2
		c-0.4,0.4-0.8,0.8-1.2,1.2c-0.3,0.3-0.6,0.5-0.8,0.8c-0.4,0.4-0.5,1.1-0.2,1.6c0.3,0.6,0.6,1.3,0.9,1.9c0.2,0.5,0.5,1.1,0.8,1.6
		c0.4,0.8,0.8,1.6,1.3,2.5c0.3,0.6,0.6,1.2,0.9,1.7c0.4,0.7,0.8,1.4,1.2,2.2c0.1,0.2,0.2,0.4,0.3,0.6c0.1,0.2,0.2,0.3,0.2,0.5
		c0.1,0.2,0.1,0.5,0.1,0.7c-0.1,0.2-0.2,0.4-0.4,0.5c-0.2,0.1-0.4,0.1-0.7,0.1c0,0-0.1,0-0.1,0c-0.6,0-1.1,0-1.6-0.1l-0.5,0
		c-0.6,0-1.2-0.1-1.8-0.1c-0.8-0.1-1.7-0.2-2.5-0.3c-1.4-0.2-2.7-0.3-3.9-0.5c-1-0.2-2-0.4-3-0.5l-0.4-0.1c-0.5-0.1-0.9-0.2-1.3-0.3
		c-0.1,0-0.3-0.1-0.5-0.1c-0.5,0-0.9,0.2-1.1,0.6c-0.3,0.3-0.6,0.7-0.9,1c-0.4,0.4-0.8,0.9-1.2,1.3c-0.3,0.4-0.6,0.8-1,1.1L254,52
		l-1.3,1.5l-0.1,0.1c-0.5,0.6-1,1.1-1.4,1.6c-0.4,0.4-0.7,0.8-1.1,1.2l-0.2,0.2c-0.4,0.5-0.9,0.9-1.4,1.4c-0.4,0.4-0.8,0.8-1.3,1.1
		c-0.2,0.1-0.4,0.2-0.7,0.2C246.4,59.3,246.3,59.3,246.3,59.3z"/>
	<path d="M256.1,11.5c0,0,0.1,0,0.1,0c0.4,0.1,0.7,0.3,1,0.6c0.5,0.6,1.1,1.1,1.5,1.8c0.4,0.5,0.7,1,1.1,1.6l0.2,0.3
		c0.5,0.8,1,1.6,1.5,2.5l0.4,0.6c0.4,0.7,0.8,1.4,1.3,2.1c0.4,0.6,0.7,1.2,1,1.8c0.3,0.5,0.6,1.1,0.8,1.7l0.1,0.2
		c0.1,0.2,0.2,0.5,0.3,0.7c0.1,0.1,0.1,0.2,0.2,0.2c0.3,0.3,0.8,0.6,1.3,0.6c0,0,0.1,0,0.1,0c0.1,0,0.2,0,0.2,0
		c0.2,0,0.4-0.1,0.6-0.2l2.6-0.7c0.5-0.1,0.9-0.2,1.4-0.4l2.3-0.7l0.8-0.2l2.6-0.6c0.4-0.1,0.8-0.2,1.2-0.3c0.2-0.1,0.4-0.1,0.5-0.2
		l0.1,0c0,0,0.1,0,0.1,0c0.1,0,0.1,0,0.2,0c0.1,0,0.1,0,0.2,0c0,0,0,0,0,0.1c0,0,0,0.1,0,0.1c0,0.2-0.1,0.5-0.3,0.7l-0.2,0.3
		c-0.1,0.2-0.2,0.4-0.4,0.6c-0.6,0.8-1.2,1.6-1.9,2.3c-0.4,0.4-0.9,0.9-1.3,1.3c-0.3,0.3-0.6,0.6-0.9,0.9c-0.3,0.3-0.7,0.7-1,1
		c-0.4,0.4-0.8,0.8-1.2,1.2c-0.4,0.4-0.8,0.8-1.1,1.1c-0.3,0.3-0.6,0.5-0.8,0.8c-0.7,0.6-0.8,1.6-0.3,2.4c0.3,0.6,0.6,1.3,0.9,1.9
		c0.3,0.5,0.5,1.1,0.8,1.6c0.4,0.8,0.8,1.7,1.3,2.5c0.3,0.6,0.6,1.1,0.9,1.7c0.4,0.7,0.8,1.5,1.2,2.2c0.1,0.2,0.2,0.4,0.3,0.6
		c0.1,0.2,0.2,0.4,0.2,0.5c0,0,0,0,0,0.1c0,0,0,0,0,0.1c0,0,0,0,0,0c-0.1,0-0.3,0.1-0.4,0.1l-0.1,0c0,0,0,0-0.1,0c0,0,0,0,0,0
		l-0.1,0c-0.5,0-1,0-1.5-0.1l-0.5,0c-0.5,0-1.1-0.1-1.8-0.1c-0.8-0.1-1.7-0.2-2.5-0.3l-0.2,0c-1.2-0.2-2.5-0.3-3.7-0.5
		c-1-0.2-2-0.4-3-0.5l-0.4-0.1c0,0,0,0-0.1,0c-0.4-0.1-0.8-0.1-1.1-0.2c-0.2-0.1-0.5-0.1-0.7-0.1c-0.7,0-1.3,0.3-1.7,0.9
		c-0.3,0.3-0.6,0.6-0.9,1c-0.4,0.4-0.8,0.9-1.2,1.3c-0.3,0.4-0.6,0.7-0.9,1.1l-0.5,0.6l-1.4,1.7l-1.3,1.5l-0.1,0.1c0,0,0,0-0.1,0.1
		c-0.5,0.5-0.9,1-1.4,1.5c-0.4,0.4-0.7,0.8-1.1,1.2l-0.2,0.3c-0.4,0.5-0.9,0.9-1.3,1.3c-0.4,0.4-0.8,0.7-1.2,0.9
		c-0.1,0.1-0.2,0.1-0.3,0.1c0,0,0,0-0.1,0c-0.1,0-0.2-0.1-0.3-0.1c-0.1-0.1-0.2-0.3-0.3-0.5c0-0.1,0-0.1,0-0.2
		c-0.1-0.2-0.1-0.4,0-0.6c0-0.1,0.1-0.1,0.1-0.2c0.2-0.5,0.2-1,0.2-1.5c0.1-0.5,0.1-1,0.2-1.5c0.1-0.4,0.1-0.8,0.2-1.3
		c0.1-0.7,0.2-1.3,0.3-2c0.2-1.3,0.4-2.7,0.7-4c0.2-0.9,0.3-1.9,0.6-3c0-0.2,0.1-0.3,0.1-0.5l0-0.2c0.2-0.5,0.1-1-0.1-1.4
		c-0.2-0.4-0.6-0.8-1.1-0.9l-0.7-0.3c-0.7-0.3-1.4-0.5-2.2-0.8c-0.3-0.1-0.7-0.3-1-0.4c-0.7-0.3-1.4-0.5-2-0.8
		c-1.2-0.5-2.4-1.1-3.3-1.6c-0.2-0.1-0.4-0.2-0.6-0.4c-0.3-0.2-0.6-0.4-1-0.5c-0.3-0.2-0.7-0.4-0.9-0.7c0,0-0.1-0.1-0.1-0.1
		c0,0,0,0,0,0c0.2-0.4,0.5-0.7,1-0.8c0,0,0.1,0,0.1,0c0.5-0.2,1-0.4,1.6-0.6l0.6-0.2c0.8-0.3,1.5-0.6,2.2-0.8
		c0.2-0.1,0.5-0.1,0.7-0.2c0.2-0.1,0.4-0.1,0.6-0.2l2.1-0.6c0.1,0,0.3-0.1,0.4-0.1c0.1,0,0.1,0,0.2-0.1l1.7-0.4l0.5-0.1
		c0.6-0.1,1.1-0.3,1.7-0.4c0.6-0.1,1.1-0.3,1.5-0.4c0.1,0,0.1,0,0.2-0.1c0.5-0.2,0.9-0.7,1-1.2c0,0,0,0,0,0c0.1-0.4,0.2-0.9,0.3-1.3
		l0.1-0.5c0.1-0.6,0.3-1.2,0.4-1.8c0.2-0.9,0.4-1.9,0.6-2.7c0.2-0.8,0.4-1.6,0.6-2.4l0.2-0.7l0.1-0.5c0.2-0.8,0.4-1.5,0.6-2.3
		c0.2-0.7,0.4-1.3,0.6-1.9l0.2-0.5c0.2-0.7,0.4-1.3,0.7-1.9c0.1-0.2,0.2-0.4,0.4-0.6C255.9,11.6,255.9,11.5,256.1,11.5
		C256,11.5,256.1,11.5,256.1,11.5 M256.1,10c-0.1,0-0.3,0-0.4,0.1c-0.3,0.1-0.6,0.3-0.9,0.5c-0.3,0.3-0.5,0.7-0.7,1l0,0
		c-0.3,0.8-0.6,1.7-0.9,2.5c-0.2,0.7-0.4,1.3-0.6,2c-0.3,0.9-0.5,1.9-0.8,2.8c-0.3,1-0.6,2.1-0.8,3.1c-0.2,0.9-0.4,1.8-0.6,2.8
		c-0.1,0.6-0.3,1.2-0.4,1.8c-0.1,0.6-0.3,1.2-0.4,1.8c0,0.1-0.1,0.2-0.3,0.3l0,0c-0.5,0.2-0.9,0.3-1.4,0.4c-0.7,0.2-1.5,0.4-2.2,0.5
		l-1.6,0.4c-0.2,0.1-0.5,0.1-0.7,0.2l-2.1,0.6c-0.5,0.1-0.9,0.2-1.4,0.4c-0.8,0.3-1.5,0.5-2.2,0.8c-0.7,0.3-1.5,0.5-2.2,0.9
		c-0.8,0.3-1.4,0.9-1.8,1.6c-0.2,0.3-0.2,0.6-0.2,0.9c0,0.3,0.2,0.6,0.4,0.8c0.4,0.4,0.9,0.8,1.4,1.1c0.6,0.3,1.1,0.6,1.6,0.9
		c1.1,0.5,2.3,1.1,3.4,1.6c1,0.5,2.1,0.9,3.1,1.3c1,0.4,2,0.8,3,1.1c0.1,0,0.2,0.1,0.2,0.2c0,0.1,0.1,0.2,0,0.3
		c-0.1,0.3-0.1,0.5-0.2,0.8c-0.2,1-0.4,2-0.6,3c-0.2,1.3-0.4,2.7-0.7,4c-0.1,0.7-0.2,1.3-0.3,2c-0.1,1-0.2,2-0.4,2.9
		c0,0.4,0,0.8-0.1,1.1c-0.3,0.5-0.3,1.2-0.1,1.7c0.1,0.5,0.4,0.9,0.7,1.3c0.3,0.3,0.8,0.5,1.2,0.6c0.1,0,0.1,0,0.2,0
		c0.4,0,0.8-0.1,1.1-0.3c0.5-0.3,1-0.7,1.4-1.1l0,0c0.6-0.5,1.1-1.1,1.6-1.6c0.4-0.4,0.8-0.8,1.1-1.2c0.5-0.5,0.9-1,1.4-1.6l0.2-0.2
		l1.3-1.5l1.4-1.7c0.5-0.6,0.9-1.1,1.4-1.7c0.7-0.8,1.4-1.5,2.1-2.3c0.1-0.2,0.3-0.3,0.5-0.3c0.1,0,0.2,0,0.2,0
		c0.5,0.1,0.9,0.2,1.4,0.3l0,0c1.1,0.2,2.3,0.4,3.4,0.6c1.3,0.2,2.6,0.4,4,0.5c0.9,0.1,1.7,0.2,2.6,0.3c0.6,0.1,1.2,0.1,1.8,0.1
		c0.7,0,1.4,0.1,2.1,0.1c0,0,0,0,0.1,0c0,0,0.1,0,0.1,0c0.3,0,0.7-0.1,1-0.2c0.4-0.2,0.7-0.5,0.8-0.9c0.1-0.4,0.1-0.9-0.1-1.3l0,0
		c-0.2-0.4-0.4-0.8-0.5-1.2c-0.7-1.3-1.4-2.6-2.1-3.9c-0.4-0.8-0.9-1.6-1.3-2.4c-0.6-1.2-1.1-2.4-1.7-3.6c-0.1-0.2-0.1-0.5,0.1-0.6
		c0.7-0.7,1.3-1.2,2-2s1.5-1.4,2.2-2.2c0.7-0.7,1.4-1.5,2.2-2.3c0.8-0.8,1.5-1.6,2.1-2.5c0.2-0.3,0.4-0.6,0.6-1
		c0.2-0.4,0.4-0.8,0.5-1.2c0.1-0.3,0-0.6-0.1-0.9c-0.1-0.3-0.4-0.5-0.6-0.7c-0.3-0.2-0.6-0.3-1-0.3c-0.2,0-0.5,0-0.7,0.1l0,0
		c-0.2,0-0.4,0.2-0.6,0.2c-0.4,0.1-0.8,0.2-1.2,0.3l-2.5,0.6l-0.8,0.2l-2.3,0.7c-0.4,0.1-0.9,0.3-1.3,0.4l-2.7,0.7
		c-0.1,0.1-0.3,0.1-0.4,0.1c-0.1,0-0.3-0.1-0.4-0.2c-0.1-0.1-0.1-0.3-0.2-0.4c-0.3-0.7-0.6-1.4-1-2c-0.3-0.6-0.7-1.3-1.1-1.9
		c-0.5-0.9-1.1-1.8-1.6-2.7c-0.5-0.8-1-1.7-1.6-2.5c-0.4-0.7-0.9-1.4-1.3-2c-0.5-0.7-1.1-1.3-1.7-1.9c-0.4-0.5-1-0.8-1.6-1
		C256.4,10,256.3,10,256.1,10L256.1,10z"/>
</g>
<g>
	<path class="st0" d="M14.3,59.9c-0.3,0-0.6-0.2-0.8-0.3c-0.2-0.2-0.4-0.5-0.5-0.9c-0.2-0.5-0.1-0.9,0-1.2c0,0,0-0.1,0-0.1
		c0.1-0.4,0.2-0.9,0.2-1.3c0.1-0.5,0.1-1.1,0.2-1.6c0.1-0.4,0.1-0.9,0.2-1.3c0.1-0.7,0.2-1.3,0.3-2c0.2-1.3,0.4-2.7,0.7-4
		c0.2-1,0.4-2,0.6-3c0-0.2,0.1-0.4,0.1-0.5l0-0.2c0.1-0.3,0.1-0.6-0.1-0.9c-0.1-0.3-0.4-0.5-0.7-0.5l-0.8-0.3
		c-0.7-0.3-1.5-0.5-2.2-0.8c-0.3-0.1-0.7-0.3-1-0.4C10,40.3,9.3,40,8.6,39.7c-1.2-0.5-2.4-1.1-3.4-1.6C5,38,4.8,37.9,4.5,37.7
		c-0.3-0.2-0.6-0.4-1-0.5c-0.4-0.2-0.8-0.5-1.1-0.9c-0.2-0.2-0.2-0.3-0.3-0.5c0-0.2,0-0.3,0.1-0.5c0.3-0.6,0.8-1,1.4-1.2
		c0.6-0.3,1.1-0.5,1.7-0.7l0.6-0.2c0.7-0.3,1.5-0.5,2.2-0.8c0.2-0.1,0.5-0.1,0.8-0.2c0.2-0.1,0.4-0.1,0.6-0.2l2.1-0.6
		c0.1,0,0.2-0.1,0.4-0.1c0.1,0,0.2-0.1,0.3-0.1l1.7-0.4l0.6-0.1c0.6-0.1,1.1-0.3,1.7-0.4c0.5-0.1,1-0.3,1.4-0.4c0,0,0.1,0,0.1,0
		c0.3-0.2,0.6-0.4,0.6-0.8c0.1-0.5,0.2-0.9,0.3-1.3l0.1-0.5c0.1-0.6,0.3-1.2,0.4-1.8l0.6-2.8c0.2-0.8,0.4-1.6,0.6-2.4l0.3-1.2
		c0.2-0.8,0.4-1.5,0.6-2.3c0.2-0.7,0.4-1.3,0.6-1.9l0.2-0.6c0.2-0.6,0.4-1.3,0.7-1.9c0.1-0.3,0.3-0.6,0.5-0.8
		c0.1-0.1,0.3-0.2,0.5-0.3c0.1,0,0.2,0,0.3,0c0.1,0,0.2,0,0.3,0c0.5,0.1,1,0.4,1.3,0.8c0.6,0.6,1.1,1.2,1.6,1.9
		c0.4,0.5,0.8,1.1,1.1,1.7l0.2,0.3c0.5,0.8,1,1.7,1.6,2.5l0.3,0.6c0.4,0.7,0.9,1.4,1.3,2.1c0.4,0.6,0.7,1.2,1.1,1.9
		c0.3,0.6,0.6,1.2,0.8,1.8l0.1,0.2c0,0.1,0.1,0.3,0.3,0.5c0,0,0.1,0.1,0.1,0.1c0.2,0.2,0.5,0.4,0.8,0.4c0,0,0,0,0.1,0
		c0,0,0.1,0,0.1,0c0.2,0,0.4-0.1,0.5-0.1l2.7-0.7c0.5-0.1,0.9-0.2,1.4-0.4l2.3-0.7l3.3-0.8c0.4-0.1,0.8-0.2,1.2-0.3
		c0.1,0,0.3-0.1,0.4-0.1c0,0,0.1,0,0.1-0.1c0,0,0.1,0,0.1,0c0.1-0.1,0.3-0.1,0.4-0.1c0.2,0,0.4,0.1,0.6,0.2c0.1,0.1,0.2,0.2,0.3,0.4
		c0.1,0.2,0.1,0.3,0.1,0.5c-0.1,0.3-0.2,0.7-0.4,0.9l-0.2,0.3c-0.1,0.2-0.3,0.4-0.4,0.6c-0.6,0.9-1.3,1.7-2,2.5
		c-0.4,0.4-0.8,0.8-1.2,1.3c-0.3,0.3-0.6,0.6-0.9,1c-0.3,0.3-0.7,0.7-1,1c-0.4,0.4-0.8,0.8-1.2,1.2c-0.4,0.4-0.8,0.8-1.2,1.2
		c-0.3,0.3-0.6,0.5-0.8,0.8c-0.4,0.4-0.5,1-0.2,1.5c0.3,0.6,0.6,1.3,0.9,2c0.3,0.5,0.5,1.1,0.8,1.6c0.4,0.8,0.8,1.6,1.3,2.4
		c0.3,0.6,0.6,1.2,0.9,1.8c0.4,0.7,0.8,1.5,1.2,2.2c0.1,0.2,0.2,0.4,0.3,0.6c0.1,0.2,0.2,0.3,0.2,0.5c0.1,0.2,0.1,0.5,0.1,0.7
		c-0.1,0.2-0.2,0.4-0.4,0.5c-0.2,0.1-0.4,0.1-0.7,0.1c0,0-0.1,0-0.1,0c-0.6,0-1.1,0-1.6-0.1l-0.5,0c-0.6,0-1.2-0.1-1.8-0.1
		c-0.8-0.1-1.7-0.2-2.5-0.3l-0.2,0c-1.3-0.2-2.5-0.3-3.8-0.5c-1-0.2-2-0.3-2.9-0.5l-0.5-0.1c-0.5-0.1-0.9-0.2-1.3-0.3
		c-0.1,0-0.3-0.1-0.5-0.1c-0.5,0-0.9,0.2-1.1,0.6c-0.3,0.3-0.6,0.7-0.9,1c-0.4,0.4-0.8,0.9-1.2,1.3c-0.3,0.4-0.6,0.8-0.9,1.1
		L23.4,51L22,52.7l-1.3,1.5l-0.1,0.1c-0.5,0.6-1,1.1-1.4,1.6c-0.4,0.4-0.7,0.8-1.1,1.2l-0.2,0.3c-0.4,0.5-0.9,0.9-1.3,1.4
		c-0.4,0.4-0.8,0.8-1.3,1.1c-0.2,0.1-0.4,0.2-0.7,0.2C14.4,59.9,14.4,59.9,14.3,59.9z"/>
	<path d="M24.1,12.1c0,0,0.1,0,0.1,0c0.4,0.1,0.7,0.3,1,0.6c0.5,0.6,1.1,1.1,1.5,1.8c0.4,0.5,0.7,1,1.1,1.6l0.2,0.3
		c0.5,0.8,1,1.6,1.5,2.5l0.3,0.6c0.4,0.7,0.8,1.4,1.3,2.1c0.4,0.6,0.7,1.2,1,1.8c0.3,0.5,0.6,1.1,0.8,1.7l0.1,0.2
		c0.1,0.2,0.2,0.5,0.3,0.7c0.1,0.1,0.1,0.2,0.2,0.2c0.3,0.3,0.8,0.6,1.3,0.6c0,0,0.1,0,0.1,0c0.1,0,0.2,0,0.2,0
		c0.2,0,0.4-0.1,0.6-0.2l2.6-0.7c0.5-0.1,0.9-0.2,1.4-0.4l2.3-0.7l0.8-0.2l2.6-0.6c0.4-0.1,0.8-0.2,1.2-0.3c0.2-0.1,0.4-0.1,0.5-0.2
		l0.1,0c0,0,0.1,0,0.1,0c0.1,0,0.1,0,0.2,0c0.1,0,0.1,0,0.2,0c0,0,0,0,0,0.1c0,0,0,0.1,0,0.1c0,0.2-0.1,0.5-0.3,0.7l-0.2,0.3
		c-0.1,0.2-0.2,0.4-0.4,0.6c-0.6,0.8-1.2,1.6-1.9,2.3c-0.4,0.4-0.9,0.9-1.3,1.3c-0.3,0.3-0.6,0.6-0.9,0.9c-0.3,0.3-0.7,0.7-1,1
		c-0.4,0.4-0.8,0.8-1.2,1.2c-0.4,0.4-0.8,0.8-1.1,1.1c-0.3,0.3-0.6,0.5-0.8,0.8c-0.7,0.6-0.8,1.6-0.3,2.4c0.3,0.6,0.6,1.3,0.9,1.9
		c0.3,0.5,0.5,1.1,0.8,1.6c0.4,0.8,0.8,1.7,1.3,2.5c0.3,0.6,0.6,1.1,0.9,1.7c0.4,0.7,0.8,1.5,1.2,2.2c0.1,0.2,0.2,0.4,0.3,0.6
		c0.1,0.2,0.2,0.4,0.2,0.5c0,0,0,0,0,0.1c0,0,0,0,0,0.1c0,0,0,0,0,0c-0.1,0-0.3,0.1-0.4,0.1l-0.1,0c0,0,0,0-0.1,0c0,0,0,0,0,0
		l-0.1,0c-0.5,0-1,0-1.5-0.1l-0.5,0c-0.5,0-1.1-0.1-1.8-0.1c-0.8-0.1-1.7-0.2-2.5-0.3l-0.2,0c-1.2-0.2-2.5-0.3-3.7-0.5
		c-1-0.2-2-0.4-3-0.5l-0.4-0.1c0,0,0,0-0.1,0c-0.4-0.1-0.8-0.1-1.1-0.2c-0.2-0.1-0.5-0.1-0.7-0.1c-0.7,0-1.3,0.3-1.7,0.9
		c-0.3,0.3-0.6,0.6-0.9,1c-0.4,0.4-0.8,0.9-1.2,1.3c-0.3,0.4-0.6,0.8-0.9,1.1l-0.5,0.6l-1.4,1.7l-1.3,1.5l-0.1,0.1c0,0,0,0-0.1,0.1
		c-0.5,0.5-0.9,1-1.4,1.5c-0.4,0.4-0.7,0.8-1.1,1.2l-0.2,0.3c-0.4,0.5-0.9,0.9-1.3,1.3c-0.4,0.4-0.8,0.7-1.2,0.9
		c-0.1,0.1-0.2,0.1-0.3,0.1c0,0,0,0-0.1,0c-0.1,0-0.2-0.1-0.3-0.1c-0.1-0.1-0.2-0.3-0.3-0.5c0-0.1,0-0.1,0-0.2
		c-0.1-0.2-0.1-0.4,0-0.6c0-0.1,0.1-0.1,0.1-0.2c0.2-0.5,0.2-1,0.2-1.5c0.1-0.5,0.1-1,0.2-1.5c0.1-0.4,0.1-0.8,0.2-1.3
		c0.1-0.7,0.2-1.3,0.3-2c0.2-1.3,0.4-2.7,0.7-4c0.2-0.9,0.3-1.9,0.6-3c0-0.2,0.1-0.3,0.1-0.5l0-0.2c0.2-0.5,0.1-1-0.1-1.4
		c-0.2-0.4-0.6-0.8-1.1-0.9l-0.7-0.3c-0.7-0.3-1.4-0.5-2.2-0.8c-0.3-0.1-0.7-0.3-1-0.4c-0.7-0.3-1.4-0.5-2-0.8
		c-1.2-0.5-2.4-1.1-3.3-1.6c-0.2-0.1-0.4-0.2-0.6-0.4c-0.3-0.2-0.6-0.4-1-0.5c-0.3-0.2-0.7-0.4-0.9-0.7c0,0-0.1-0.1-0.1-0.1
		c0,0,0,0,0,0c0.2-0.4,0.5-0.7,1-0.8c0,0,0.1,0,0.1,0c0.5-0.2,1-0.4,1.6-0.6L6.2,34c0.8-0.3,1.5-0.6,2.2-0.8
		c0.2-0.1,0.5-0.1,0.7-0.2c0.2-0.1,0.4-0.1,0.6-0.2l2.1-0.6c0.1,0,0.3-0.1,0.4-0.1c0.1,0,0.1,0,0.2-0.1l1.7-0.4l0.5-0.1
		c0.6-0.1,1.1-0.3,1.7-0.4c0.6-0.1,1.1-0.3,1.5-0.4c0.1,0,0.1,0,0.2-0.1c0.5-0.2,0.9-0.7,1-1.2c0,0,0,0,0,0c0.1-0.4,0.2-0.9,0.3-1.3
		l0.1-0.5c0.1-0.6,0.3-1.2,0.4-1.8c0.2-0.9,0.4-1.9,0.6-2.7c0.2-0.8,0.4-1.6,0.6-2.4l0.2-0.7l0.1-0.5c0.2-0.8,0.4-1.5,0.6-2.3
		c0.2-0.7,0.4-1.3,0.6-1.9l0.2-0.5c0.2-0.7,0.4-1.3,0.7-1.9c0.1-0.2,0.2-0.4,0.4-0.6C24,12.2,24,12.2,24.1,12.1
		C24.1,12.1,24.1,12.1,24.1,12.1 M24.1,10.6c-0.1,0-0.3,0-0.4,0.1c-0.3,0.1-0.6,0.3-0.9,0.5c-0.3,0.3-0.5,0.7-0.7,1l0,0
		c-0.3,0.8-0.6,1.7-0.9,2.5c-0.2,0.7-0.4,1.3-0.6,2c-0.3,0.9-0.5,1.9-0.8,2.8c-0.3,1-0.6,2.1-0.8,3.1c-0.2,0.9-0.4,1.8-0.6,2.8
		c-0.1,0.6-0.3,1.2-0.4,1.8c-0.1,0.6-0.3,1.2-0.4,1.8c0,0.1-0.1,0.2-0.3,0.3l0,0c-0.5,0.2-0.9,0.3-1.4,0.4c-0.7,0.2-1.5,0.4-2.2,0.5
		l-1.6,0.4c-0.2,0.1-0.5,0.1-0.7,0.2l-2.1,0.6c-0.5,0.1-0.9,0.2-1.4,0.4c-0.8,0.3-1.5,0.5-2.2,0.8c-0.7,0.3-1.5,0.5-2.2,0.9
		C2.6,33.7,2,34.3,1.6,35c-0.2,0.3-0.2,0.6-0.2,0.9c0,0.3,0.2,0.6,0.4,0.8c0.4,0.4,0.9,0.8,1.4,1.1c0.6,0.3,1.1,0.6,1.6,0.9
		c1.1,0.5,2.3,1.1,3.4,1.6c1,0.5,2.1,0.9,3.1,1.3c1,0.4,2,0.8,3,1.1c0.1,0,0.2,0.1,0.2,0.2c0,0.1,0.1,0.2,0,0.3
		c-0.1,0.3-0.1,0.5-0.2,0.8c-0.2,1-0.4,2-0.6,3c-0.2,1.3-0.4,2.7-0.7,4c-0.1,0.7-0.2,1.3-0.3,2c-0.1,1-0.2,2-0.4,2.9
		c0,0.4,0,0.8-0.1,1.1c-0.3,0.5-0.3,1.2-0.1,1.7c0.1,0.5,0.4,0.9,0.7,1.3c0.3,0.3,0.8,0.5,1.2,0.6c0.1,0,0.1,0,0.2,0
		c0.4,0,0.8-0.1,1.1-0.3c0.5-0.3,1-0.7,1.4-1.1l0,0c0.6-0.5,1.1-1.1,1.6-1.6c0.4-0.4,0.8-0.8,1.1-1.2c0.5-0.5,0.9-1,1.4-1.6l0.2-0.2
		l1.3-1.5l1.4-1.7c0.5-0.6,0.9-1.1,1.4-1.7c0.7-0.8,1.4-1.5,2.1-2.3c0.1-0.2,0.3-0.3,0.5-0.3c0.1,0,0.2,0,0.2,0
		c0.5,0.1,0.9,0.2,1.4,0.3l0,0c1.1,0.2,2.3,0.4,3.4,0.6c1.3,0.2,2.6,0.4,4,0.5c0.9,0.1,1.7,0.2,2.6,0.3c0.6,0.1,1.2,0.1,1.8,0.1
		c0.7,0,1.4,0.1,2.1,0.1c0,0,0,0,0.1,0c0,0,0.1,0,0.1,0c0.3,0,0.7-0.1,1-0.2c0.4-0.2,0.7-0.5,0.8-0.9c0.1-0.4,0.1-0.9-0.1-1.3l0,0
		c-0.2-0.4-0.4-0.8-0.5-1.2c-0.7-1.3-1.4-2.6-2.1-3.9c-0.4-0.8-0.9-1.6-1.3-2.4c-0.6-1.2-1.1-2.4-1.7-3.6c-0.1-0.2-0.1-0.5,0.1-0.6
		c0.7-0.7,1.3-1.2,2-2c0.7-0.8,1.5-1.4,2.2-2.2c0.7-0.7,1.4-1.5,2.2-2.3c0.8-0.8,1.5-1.6,2.1-2.5c0.2-0.3,0.4-0.6,0.6-1
		c0.2-0.4,0.4-0.8,0.5-1.2c0.1-0.3,0-0.6-0.1-0.9c-0.1-0.3-0.4-0.5-0.6-0.7c-0.3-0.2-0.6-0.3-1-0.3c-0.2,0-0.5,0-0.7,0.1l0,0
		c-0.2,0-0.4,0.2-0.6,0.2c-0.4,0.1-0.8,0.2-1.2,0.3l-2.5,0.6l-0.8,0.2l-2.3,0.7c-0.4,0.1-0.9,0.3-1.3,0.4l-2.7,0.7
		c-0.1,0.1-0.3,0.1-0.4,0.1c-0.1,0-0.3-0.1-0.4-0.2c-0.1-0.1-0.1-0.3-0.2-0.4c-0.3-0.7-0.6-1.4-1-2c-0.3-0.6-0.7-1.3-1.1-1.9
		c-0.5-0.9-1.1-1.8-1.6-2.7c-0.5-0.8-1-1.7-1.6-2.5c-0.4-0.7-0.9-1.4-1.3-2c-0.5-0.7-1.1-1.3-1.7-1.9c-0.4-0.5-1-0.8-1.6-1
		C24.5,10.7,24.3,10.6,24.1,10.6L24.1,10.6z"/>
</g>
</svg>
