<svg xmlns="http://www.w3.org/2000/svg" fill="none" viewBox="0 0 8 8">
  <g fill="#0E3D97" clip-path="url(#a)">
    <path d="M5.908 4.418a1.478 1.478 0 0 0-.128-.152 6.215 6.215 0 0 0-.084-.089l-.043-.045-.022-.022-.003-.003c-.009-.003.023.034.042.058a2.792 2.792 0 0 0 .238.253Zm-.28-.312v.001-.001Zm-.139 1.075.1.097a3.059 3.059 0 0 0-.1-.097Z"/>
    <path d="M4.093 2.489a.304.304 0 0 1 .02.024c-.013.014-.018.006-.021-.002-.002-.005-.003-.009-.005-.01 0-.002 0-.002-.002-.002 0 0 0 .004-.004.001-.005.026-.022.008-.031-.007l-.004-.005v-.001l-.001-.001-.002-.002-.02-.02-.073-.075a.871.871 0 0 0-.113-.1c.005-.002-.126-.129-.108-.13-.057-.022-.14-.126-.228-.2-.035-.023.017.026.035.053l-.198-.172c-.07-.076-.078-.103.005-.03a79.93 79.93 0 0 0-.535-.501L2.419.944l-.295-.28-.432-.42-.116.057-.127.066-.06.03c-.02.011-.039.02-.059.033-.02.011-.039.026-.058.04a.851.851 0 0 0-.058.047A1.477 1.477 0 0 0 1 .772C.982.796.966.82.948.842.939.856.929.865.92.876L.914.883.91.886.905.893a2.917 2.917 0 0 1-.103.109l-.095.093-.242.24-.239.235L0 1.794l.272.162.134.08c.007.004.009.007.013.01l.011.01.023.019.045.038.178.151c.03.024.056.05.082.076l.05.05.286.281c.174.172.315.31.405.395-.054-.08-.223-.228-.263-.309.149.124.198.203.27.251.023.082.295.305.367.438l.056.022.058.078c.308.29.344.322.37.348l.06.067.036.037.002.003v.001l.001.002.003.006a.063.063 0 0 0 .011.005.031.031 0 0 1 .002.028l-.001.002-.007.007-.027.026a2.425 2.425 0 0 1-.111.1c.027-.024.108-.079.03.003-.03-.003-.211.218-.266.24-.08.078-.343.327-.234.263-.055.032-.292.254-.162.11-.08.076-.158.147-.21.207l.106-.093-.093.093-.082.08-.146.137c-.09.085-.167.16-.243.252l.105-.084c-.154.152-.284.28-.366.319l.155-.162-.178.173-.173.172a26.05 26.05 0 0 0-.54.555l.143-.141-.167.176.015.018a.857.857 0 0 1 .018.019l.037.04.08.083.178.186c.063.066.137.135.215.205l.06.053.057.05.07.06a7.306 7.306 0 0 1 .201.181l.016.015.01.01.017.017.064.064c.085.086.173.169.26.244l.132.114.066.057.033.028c.011.01.023.02.033.026a284.911 284.911 0 0 1 .383-.349l.06-.055.056-.054a200.496 200.496 0 0 1 .172-.168 8.93 8.93 0 0 0 .43-.465l-.132.101.201-.231c-.025.026-.05.156-.077.173.115-.117.347-.36.635-.658l.226-.232.246-.246.198-.198.077-.079.271.284c.166.175.326.34.471.49l.207.21.178.18c.106.106.188.19.24.246.16.18.004.055 0 .056.212.203.106.074.28.253.045.052-.022.003-.052-.023.08.077.145.155.159.154-.091-.104-.03-.082-.058-.136l.226.232-.023.002a.374.374 0 0 0 .062.05l.013.01.03.025.066.054a4.913 4.913 0 0 1 .404.378l.05.05.012-.006.013-.01.025-.023.052-.045.101-.091c.068-.062.137-.123.204-.191a4.542 4.542 0 0 0 .195-.206l.119-.128.116-.12.078-.074a10.07 10.07 0 0 0 .206-.203l.096-.103.094-.104.047-.051.023-.026.012-.014c.005-.004.005-.008.008-.012l-.213-.239c.018.006.123.114.243.239l-.006.011-.01.012-.02.024.02-.022.01-.012c.005-.005.006-.009.009-.013a6.141 6.141 0 0 1-.23-.264c.062.083-.005.014-.073-.059a46.233 46.233 0 0 0-.05-.053l-.039-.04c-.02-.02-.023-.022.003.008l-.088-.083-.044-.042-.039-.037a6.141 6.141 0 0 1-.119-.113c-.08-.076-.16-.156-.24-.235a6.443 6.443 0 0 0-.449-.417c-.024.004-.276-.004-.525-.01-.249-.005-.497-.01-.514.006a3.723 3.723 0 0 1-.177-.18c.013.027.164.183.25.257l.032-.004c.195.175.034.053.22.228-.005.024-.178-.134-.329-.278.133.132.257.27.328.307.12.126-.031.005.114.155.112.098.267.218.38.344h-.005c.14.15.256.254.367.356l.082.076a3.954 3.954 0 0 0 .049.045l.007.006a.028.028 0 0 1 .004.005.005.005 0 0 1 0 .006l-.009.001c-.004.002-.004.003-.003.004 0 .001 0 .007-.008.003.003.003.02.008.015.015l.002-.002-.003.002-.01.01-.022.02c-.015.012-.028.025-.04.037a3.17 3.17 0 0 0-.074.072l-.124.13-.027.03-.014.014-.006.008H6.59l-.003.002c-.002 0-.004 0-.007-.004a.077.077 0 0 1 0 .03c-.001 0-.002.002-.004.001a.369.369 0 0 0-.013-.012l-.008-.008-.126-.126c-.189-.19-.41-.414-.65-.652l-.18-.177-.18-.18a45.08 45.08 0 0 1-.72-.74l-.638-.675-.816.814a36.75 36.75 0 0 0-.419.424l-.555.577.024-.03c-.133.14-.285.295-.452.46-.042.042-.084.085-.128.127l-.095.09-.024.024a.825.825 0 0 1-.021.018l-.002-.002-.004-.003-.008-.007-.016-.016-.008-.007-.033-.034a4.818 4.818 0 0 0-.277-.259L1.2 6.533l-.01-.008-.018-.017-.009-.008-.004-.005-.003-.002V6.49l.043-.044.3-.293.314-.307.154-.152.15-.15a41.05 41.05 0 0 1 .813-.792l.127-.122c.07-.066.14-.13.206-.194.134-.113.287-.248.443-.39-.211-.221-.443-.458-.63-.652l.027.03a3.474 3.474 0 0 0 .057.065c.015.02.018.025.01.022a1.554 1.554 0 0 1-.086-.078l-.036-.037c-.267-.27-.279-.275-.292-.282-.013-.006-.028-.013-.302-.28a60.056 60.056 0 0 1-.566-.55l-.386-.38-.15-.148a12.682 12.682 0 0 0-.054-.054c-.002-.003-.005-.004-.008-.006l-.005-.003.004-.003.015-.015.03-.03.032-.03.004-.003.002-.002.004-.005.033-.032a5.535 5.535 0 0 0 .132-.14l.01-.012.007-.008.025-.033a.198.198 0 0 1 .026-.03.068.068 0 0 1 .017-.01l.014.014a104.124 104.124 0 0 1 .116.115l.048.045.357.336c.218.205.393.369.498.47.163.132.336.29.503.449l.247.237a438.417 438.417 0 0 0 .362.348l-.053-.043c.068.065.176.17.312.305l.026.026.014.013s.002.003.003.002l.003-.003.007-.007.058-.055.122-.117.274-.261.419-.404.394-.384c.266-.26.533-.524.755-.744L6.4 1.39l.03-.03.013-.013a.528.528 0 0 0 .032-.035l-.013.007a.312.312 0 0 1 .044-.05l.008-.01.002.001.002.003.004.007.014.025a.301.301 0 0 0 .031.053c.003-.008.01-.012.019-.012l.007.001.004.001.003.001.007.006.063.05.073.06.038.03c.017.013.017.012.021.014l.037.022-.008.003.05.028c.01.007.02.014.03.024l.006.008c.001.001.003.002.003.004l-.002.003-.01.014-.029.039-.016.021-.004.006-.005.006-.014.016-.027.033-.014.016-.026.029-.107.118-.003-.023c-.197.235-.59.648-.738.807a26.96 26.96 0 0 1-.536.536l-.359.35c-.17.168-.342.338-.507.504.118.114.234.227.348.335l.118.135.06.069.032.035.007.008.005.006.009.01.135.17.048.041s.926.06.393-.652l.022-.002-.063-.06-.027-.027-.007-.006c-.011-.018-.024-.026-.034-.033-.009-.006-.013-.01-.001-.01l.037.04c-.012-.016-.01-.02-.004-.019.007 0 .018.005.025.005-.007-.01-.014-.02-.014-.027-.012-.002-.006.005-.006.01-.012-.006-.033-.015-.05-.028a.159.159 0 0 1 .032-.03c.024-.023.032-.02.042-.02.009 0 .019 0 .041-.02l.018-.016.008-.007.03-.028.135-.134.268-.269c.176-.179.349-.359.52-.538l.511-.535.128-.133.173-.178.11-.114.129-.13.256-.26c-.025-.052-.047-.1-.08-.163l-.089-.164a.745.745 0 0 0-.119-.156 1.338 1.338 0 0 0-.173-.145l-.098-.07-.046-.035-.036-.03a2.554 2.554 0 0 1-.077-.07L7.2.781 7.141.724 6.973.558c-.039-.049.011.001.067.052L6.715.293 6.559.14A7.23 7.23 0 0 1 6.52.102L6.501.083 6.485.067 6.414.001 6.178.39 6.171.4l-.007.008-.014.017-.028.032-.056.066-.111.13-.028.032-.029.03-.029.029-.023.024-.058.06-.117.12c-.077.065-.105.077-.131.094a20.05 20.05 0 0 1-.695.709l-.51.504-.174.169-.052.049-.014.013-.003.003.001-.001Z"/>
  </g>
  <defs>
    <clipPath id="a">
      <path fill="#fff" d="M0 0h8v8H0z"/>
    </clipPath>
  </defs>
</svg>
