<?xml version="1.0" encoding="UTF-8"?>
<svg id="Layer_2" data-name="Layer 2" xmlns="http://www.w3.org/2000/svg" viewBox="0 0 1080 1080">
  <defs>
    <style>
      .cls-1 {
        fill: #000;
        stroke-width: 0px;
      }
    </style>
  </defs>
  <g id="Layer_1-2" data-name="Layer 1">
    <path class="cls-1" d="M540,0C241.2,0,0,241.2,0,540s241.2,540,540,540,540-241.2,540-540S838.8,0,540,0ZM211.2,211.2c87.6-87.6,204-135.6,328.8-135.6,111.6,0,217.2,39.6,301.2,110.4L186,841.2c-72-84-110.4-189.6-110.4-301.2-1.2-124.8,48-241.2,135.6-328.8ZM868.8,868.8c-87.6,87.6-204,135.6-328.8,135.6-111.6,0-217.2-39.6-301.2-110.4L894,238.8c72,84,110.4,189.6,110.4,301.2,1.2,124.8-48,241.2-135.6,328.8h0Z"/>
  </g>
</svg>