<?xml version="1.0" encoding="UTF-8"?><svg id="Layer_2" xmlns="http://www.w3.org/2000/svg" viewBox="0 0 719.48 897.38"><defs><style>.cls-1{fill:#000;stroke-width:0px;}</style></defs><g id="Layer_1-2"><path class="cls-1" d="M719.48,803.63V131.25c0-51.7-42.05-93.75-93.75-93.75h-6.54v-18.75c0-10.37-8.4-18.75-18.75-18.75s-18.75,8.38-18.75,18.75v18.75h-82.85v-18.75c0-10.37-8.4-18.75-18.75-18.75s-18.75,8.38-18.75,18.75v18.75h-82.84v-18.75c0-10.37-8.4-18.75-18.75-18.75s-18.75,8.38-18.75,18.75v18.75h-82.84v-18.75c0-10.37-8.4-18.75-18.75-18.75s-18.75,8.38-18.75,18.75v18.75h-82.86v-18.75c0-10.37-8.4-18.75-18.75-18.75s-18.75,8.38-18.75,18.75v18.75h-6.54C42.06,37.5,0,79.55,0,131.25v672.38c0,51.7,42.05,93.75,93.74,93.75h531.98c51.7,0,93.75-42.05,93.75-93.75h0ZM93.75,75.01h6.54v18.75c0,10.37,8.4,18.75,18.75,18.75s18.75-8.38,18.75-18.75v-18.75h82.86v18.75c0,10.37,8.4,18.75,18.75,18.75s18.75-8.38,18.75-18.75v-18.75h82.84v18.75c0,10.37,8.4,18.75,18.75,18.75s18.75-8.38,18.75-18.75v-18.75h82.84v18.75c0,10.37,8.4,18.75,18.75,18.75s18.75-8.38,18.75-18.75v-18.75h82.85v18.75c0,10.37,8.4,18.75,18.75,18.75s18.75-8.38,18.75-18.75v-18.75h6.54c31.01,0,56.25,25.24,56.25,56.25v48.15H37.49v-48.15c0-31.01,25.24-56.25,56.25-56.25h0ZM37.5,803.63V216.9h644.48v586.73c0,31.01-25.24,56.25-56.25,56.25H93.75c-31.01,0-56.25-25.24-56.25-56.25Z"/><path class="cls-1" d="M527.69,598.93c-11.66-5.61-19.18-17.59-19.18-30.52v-49.31c0-66.62-41.42-123.38-99.8-144.05,4.5-8.08,7.27-17.25,7.27-27.13,0-31.01-25.24-56.25-56.25-56.25s-56.25,25.24-56.25,56.25c0,9.9,2.79,19.07,7.29,27.15-19.76,6.86-38.06,17.79-53.72,32.72-29.72,28.37-46.09,66.6-46.09,107.66v52.97c0,12.92-7.52,24.92-19.18,30.52-24.54,11.83-40.39,37.07-40.39,64.31,0,36.71,29.87,66.58,66.56,66.58h64.73c8.48,34.78,39.7,60.77,77.04,60.77s68.57-25.99,77.04-60.77h64.73c36.71,0,66.56-29.87,66.56-66.58,0-27.24-15.86-52.48-40.39-64.31h.01ZM359.74,329.16c10.33,0,18.75,8.4,18.75,18.75s-8.42,18.75-18.75,18.75-18.75-8.4-18.75-18.75,8.42-18.75,18.75-18.75h0ZM359.74,753.08c-16.41,0-30.49-9.54-37.41-23.27h74.81c-6.92,13.73-21,23.27-37.41,23.27ZM501.51,692.31H217.97c-16.03,0-29.06-13.03-29.06-29.08,0-12.92,7.52-24.9,19.16-30.51,24.54-11.83,40.41-37.09,40.41-64.33v-52.97c0-30.73,12.24-59.3,34.48-80.53,20.91-19.93,47.98-30.75,76.74-30.75,1.82,0,3.62.04,5.46.13,59.36,2.79,105.86,53.23,105.86,114.8v49.31c0,27.24,15.86,52.5,40.41,64.33,11.65,5.61,19.16,17.59,19.16,30.51,0,16.03-13.03,29.08-29.06,29.08h-.01Z"/></g></svg>