<?xml version="1.0" encoding="UTF-8"?><svg id="Layer_2" xmlns="http://www.w3.org/2000/svg" viewBox="0 0 786.17 636.86"><defs><style>.cls-1{fill:#000;stroke-width:0px;}</style></defs><g id="Layer_1-2"><path class="cls-1" d="M134.67,497.76c27.33-1.48,54.65-2.96,81.97-4.43,13.66-.74,27.33-1.48,40.98-2.22,9.34-.82,22.7-3.23,33.32-1.7,1.89,5.7,2.41,13.36,2.63,19.35,3.1,12.37,4.52,25.05,7.61,37.43l12.95,71.82c2.41,13.36,18.18,24.31,31.32,15.91,157.62-96.54,302.59-210.63,433.54-340.3,17.63-16.97-.46-45.61-20.21-40.33-.9-5.01-4.16-8.73-9.09-12.16C621.72,162.48,493.42,82.15,365.42,3.49c-14.48-8.6-34.61-.66-34.94,16.65-1.64,33.92-.63,68.23-3.94,102.45-.77,5.31-.55,11.31-5.94,14.87-4.71,2.58-14.35,1.73-18.67,1.64-17.3-.33-35.29.33-52.59,0-70.59.66-140.48.33-212.05.3-12.98-.25-22.78,7.56-24.69,20.84C4.63,211.69.99,263.21,0,315.12c.19,24.97.38,49.94.58,74.91.88,23.98.38,49.94,4.6,73.32,5.2,24.07,21.88,40.03,46.84,39.84,28.3-.8,55.32-3.95,82.65-5.42h0ZM49.09,429.56c-.44-11.99-1.86-24.67-2.3-36.66-1.56-23-1.45-46.3-1.34-69.6.22-46.6,4.76-93.11,10.98-139.93,74.91-.58,150.12.52,225.03-.06,34.61.66,75.51,2.77,87.94-38.28,5.34-18.21,4.08-39.54,5.09-57.82.16-8.65.33-17.3,1.48-25.27,116.47,72.12,232.94,144.23,350.4,217.03.98.68,2.96,2.05,4.63,1.75-115.29,111.32-240.36,211.48-375.8,297.12-2.41-13.36-5.12-28.39-7.53-41.75-3.92-21.71-4.71-50.02-15.31-70.53-11.88-22.86-37.24-20.01-59.55-19.44-25.65,1.18-51.31,2.35-76.96,3.53-25.65,1.18-51.31,2.35-76.96,3.53-12.68,1.42-25.65,1.18-38.33,2.6-6,.22-27.02,3.15-28.31.79-4.55-6.08-2.93-21.03-3.15-27.02h0Z"/></g></svg>