<?xml version="1.0" encoding="UTF-8"?>
<svg width="1200pt" height="1200pt" version="1.1" viewBox="0 0 1200 1200" xmlns="http://www.w3.org/2000/svg">
 <g>
  <path d="m336 864c-94.801-94.801-127.2-226.8-99.602-349.2l102 33.602-73.199-296.4-235.2 195.6 103.2 33.602c-39.602 159.6 2.3984 334.8 126 459.6 145.2 145.2 361.2 178.8 538.8 98.398l-26.398-108c-140.4 73.195-318 50.398-435.6-67.203z"/>
  <path d="m1066.8 718.8c39.602-159.6-2.3984-334.8-126-459.6-145.2-145.2-360-177.6-536.4-99.602l26.398 108c140.4-70.801 316.8-48 433.2 68.398 94.801 94.801 127.2 226.8 99.602 349.2l-102-33.602 73.199 296.41 235.2-195.6z"/>
 </g>
</svg>
