<?xml version="1.0" encoding="UTF-8"?>
<svg id="Layer_2" data-name="Layer 2" xmlns="http://www.w3.org/2000/svg" viewBox="0 0 1137.85 1044.45">
  <defs>
    <style>
      .cls-1 {
        fill: #77ed88;
      }

      .cls-1, .cls-2 {
        stroke-width: 0px;
      }

      .cls-2 {
        fill: #000;
      }
    </style>
  </defs>
  <g id="Layer_1-2" data-name="Layer 1">
    <g>
      <path class="cls-2" d="M369.24,482.97v420.25l.23.33c29.94,42.53,78.86,67.91,130.85,67.91h469.73c16.79,0,32.47-6.5,44.16-18.29,12-11.89,18.5-27.57,18.5-44.36,0-7.77-1.36-15.26-4.01-22.22-4.48.49-9.02.74-13.6.74h-59.71c-16.52,0-29.92-13.39-29.92-29.91s13.4-29.92,29.92-29.92h59.71c16.79,0,32.48-6.5,44.16-18.29,11.96-11.96,18.49-27.68,18.49-44.37,0-12.09-3.41-23.65-9.69-33.5-16.44,7.86-34.57,12.05-52.96,12.05h-59.71c-16.52,0-29.92-13.4-29.92-29.92s13.4-29.92,29.92-29.92h59.71c14.3,0,27.76-4.68,38.96-13.55,1.81-1.58,3.61-3.15,5.31-4.84,11.89-11.78,18.39-27.47,18.39-44.26,0-12.11-3.45-23.71-9.76-33.64-16.42,7.84-34.54,12.02-52.9,12.02h-59.71c-16.52,0-29.92-13.4-29.92-29.92s13.4-29.92,29.92-29.92h59.71c14.31,0,27.77-4.67,38.96-13.55,1.95-1.7,3.68-3.21,5.31-4.83,11.47-11.37,17.95-26.48,18.36-42.62.4-15.93-5.89-31.37-17.71-43.51-12.88-13.21-30.68-20.79-48.81-20.79h-286.33c-9.42,0-18.28-4.43-23.93-11.97-5.66-7.53-7.42-17.29-4.78-26.33,78.03-267.35-23.16-302.53-56.41-314.09-8.57-2.97-17.86-1.76-25.48,3.3-7.74,5.15-12.5,13.42-13.07,22.67-7.88,128.91-85.91,261.84-231.97,395.25ZM60.1,420v542.4c0,12.11,9.84,21.97,21.95,21.97h205.39c12.12,0,21.96-9.86,21.96-21.97V420c0-12.11-9.84-21.96-21.96-21.96H82.05c-12.11,0-21.95,9.85-21.95,21.96ZM.25,420c0-45.11,36.69-81.8,81.8-81.8h205.39c38.96,0,71.64,27.38,79.82,63.91,109.46-109.66,168.02-216.46,174.23-318.05,1.72-28.11,16.15-53.19,39.62-68.83,23.32-15.52,51.86-19.2,78.28-10,117.23,40.76,152.34,158.12,104.61,349.08h247.21c34.18,0,67.58,14.16,91.65,38.85,23.19,23.78,35.51,54.6,34.69,86.79-.63,25.12-8.81,48.99-23.36,68.87,15.1,20.71,23.41,45.78,23.41,72.08h-.01c0,26.3-8.19,51.26-23.34,71.96,15.06,20.62,23.35,45.66,23.35,71.98,0,32.67-12.76,63.42-35.93,86.58-5.26,5.31-10.95,10.07-16.97,14.26,5.14,13.68,7.85,28.32,7.85,43.12,0,32.86-12.79,63.65-36.02,86.67-22.83,23.03-53.61,35.82-86.48,35.82h-469.73c-49.18,0-96.35-16.53-134.39-45.88-9.96,33.94-41.38,58.79-78.49,58.79H82.05c-45.11,0-81.8-36.7-81.8-81.8V420Z"/>
      <path class="cls-1" d="M500.32,971.46c-51.99,0-100.91-25.38-130.85-67.91l-.23-.33v-420.25c146.06-133.41,224.09-266.34,231.97-395.25.57-9.25,5.33-17.52,13.07-22.67,7.62-5.06,16.91-6.27,25.48-3.3,33.25,11.56,134.44,46.74,56.41,314.09-2.64,9.04-.88,18.8,4.78,26.33,5.65,7.54,14.51,11.97,23.93,11.97h286.33c18.13,0,35.93,7.58,48.81,20.79,11.82,12.14,18.11,27.58,17.71,43.51-.41,16.14-6.89,31.25-18.36,42.62-1.63,1.62-3.36,3.13-5.31,4.83-11.19,8.88-24.65,13.55-38.96,13.55h-59.71c-16.52,0-29.92,13.4-29.92,29.92s13.4,29.92,29.92,29.92h59.71c18.36,0,36.48-4.18,52.9-12.02,6.31,9.93,9.76,21.53,9.76,33.64,0,16.79-6.5,32.48-18.39,44.26-1.7,1.69-3.5,3.26-5.31,4.84-11.2,8.87-24.66,13.55-38.96,13.55h-59.71c-16.52,0-29.92,13.4-29.92,29.92s13.4,29.92,29.92,29.92h59.71c18.39,0,36.52-4.19,52.96-12.05,6.28,9.85,9.69,21.41,9.69,33.5,0,16.69-6.53,32.41-18.49,44.37-11.68,11.79-27.37,18.29-44.16,18.29h-59.71c-16.52,0-29.92,13.4-29.92,29.92s13.4,29.91,29.92,29.91h59.71c4.58,0,9.12-.25,13.6-.74,2.65,6.96,4.01,14.45,4.01,22.22,0,16.79-6.5,32.47-18.5,44.36-11.69,11.79-27.37,18.29-44.16,18.29h-469.73Z"/>
      <path class="cls-1" d="M82.05,984.37c-12.11,0-21.95-9.86-21.95-21.97V420c0-12.11,9.84-21.96,21.95-21.96h205.39c12.12,0,21.96,9.85,21.96,21.96v542.4c0,12.11-9.84,21.97-21.96,21.97H82.05Z"/>
    </g>
  </g>
</svg>