<?xml version="1.0" encoding="UTF-8"?><svg id="Layer_2" xmlns="http://www.w3.org/2000/svg" viewBox="0 0 566.83 665.37"><defs><style>.cls-1{fill:#000;stroke-width:0px;}</style></defs><g id="Layer_1-2"><path class="cls-1" d="M285.54.09c-3.75.41-7.22,2.22-9.71,5.06-2.49,2.84-3.83,6.52-3.75,10.29v22.67H98.27c-.47-.02-.95-.02-1.42,0-3.24.29-6.31,1.61-8.74,3.78L4.98,117.47c-3.17,2.86-4.98,6.94-4.98,11.21s1.81,8.35,4.98,11.22l83.13,75.57c2.77,2.56,6.39,3.99,10.16,4.02h173.81v37.79h-83.13c-.47-.02-.95-.02-1.41,0-3.76.36-7.25,2.1-9.79,4.9s-3.93,6.44-3.91,10.22v151.14c0,4.01,1.59,7.85,4.43,10.69,2.84,2.83,6.68,4.43,10.69,4.43h83.13v196.49h-45.34c-.47-.02-.94-.02-1.41,0-4.01.18-7.78,1.96-10.48,4.93-2.7,2.97-4.11,6.89-3.93,10.9.19,4.01,1.96,7.78,4.93,10.48,2.97,2.7,6.89,4.11,10.9,3.93h120.91c4.05.06,7.95-1.51,10.83-4.35,2.88-2.84,4.5-6.71,4.5-10.76s-1.62-7.92-4.5-10.77c-2.88-2.84-6.78-4.41-10.83-4.35h-45.34v-196.49h166.26c3.77-.02,7.39-1.46,10.15-4.02l83.13-75.57c3.17-2.87,4.98-6.94,4.98-11.22s-1.81-8.35-4.98-11.22l-83.13-75.57c-2.8-2.47-6.42-3.82-10.15-3.78h-166.26v-37.79h75.57c4.01,0,7.85-1.59,10.69-4.43,2.83-2.84,4.43-6.68,4.43-10.69V53.23c0-4.01-1.59-7.85-4.43-10.69-2.84-2.83-6.68-4.43-10.69-4.43h-75.57V15.44c.09-4.35-1.7-8.54-4.91-11.48-3.21-2.94-7.54-4.35-11.86-3.88h0ZM103.93,68.34h258.83v120.91H104.16l-66.6-60.46,66.37-60.45ZM204.06,287.5h258.83l66.36,60.46-66.6,60.46H204.06v-120.91Z"/></g></svg>