<svg xmlns="http://www.w3.org/2000/svg" viewBox="0 0 24.34 24.34"><defs><style>.cls-1{fill:none;stroke:#595959;stroke-miterlimit:10;stroke-width:2px;}.cls-2{fill:#595959;}</style></defs><g id="Layer_2" data-name="Layer 2"><g id="Layer_1-2" data-name="Layer 1"><circle class="cls-1" cx="12.17" cy="12.17" r="11.17"/><path class="cls-2" d="M14.3,12.17,17.37,9.1A1.5,1.5,0,1,0,15.25,7l-3.08,3.08L9.1,7A1.51,1.51,0,0,0,7,9.1l3.08,3.07L7,15.24a1.52,1.52,0,0,0,0,2.13A1.48,1.48,0,0,0,8,17.81a1.47,1.47,0,0,0,1.06-.44l3.07-3.08,3.07,3.08a1.48,1.48,0,0,0,1.06.44,1.47,1.47,0,0,0,1.06-.44,1.52,1.52,0,0,0,0-2.13Z"/></g></g></svg>