<?xml version="1.0" encoding="UTF-8"?>
<svg width="1200pt" height="1200pt" version="1.1" viewBox="0 0 1200 1200" xmlns="http://www.w3.org/2000/svg">
 <g>
  <path d="m1148.4 980.4-199.2-199.2c-25.199-25.199-63.602-26.398-91.199-7.1992l-70.801-70.801c123.6-164.4 111.6-399.6-38.398-549.6-164.4-164.4-430.8-164.4-595.2 0-164.4 164.4-164.4 430.8 0 595.2 150 150 385.2 162 549.6 38.398l70.801 70.801c-19.199 28.801-16.801 66 7.1992 91.199l199.2 199.2c28.801 28.801 74.398 28.801 103.2 0l64.801-64.801c28.797-27.594 28.797-74.395-0.003906-103.2zm-912-315.6c-117.6-117.6-117.6-309.6 0-427.2 117.6-117.6 309.6-117.6 427.2 0 117.6 117.6 117.6 309.6 0 427.2-117.6 117.6-308.4 117.6-427.2 0z"/>
  <path d="m579.6 322.8c-19.199-19.199-50.398-19.199-69.602 0l-58.801 58.801-58.801-58.801c-19.199-19.199-50.398-19.199-69.602 0-19.199 19.199-19.199 50.398 0 69.602l58.801 58.801-58.801 58.801c-19.199 19.199-19.199 50.398 0 69.602 9.6016 9.6016 21.602 14.398 34.801 14.398 13.199 0 25.199-4.8008 34.801-14.398l58.801-58.801 58.801 58.801c9.6016 9.6016 22.801 14.398 34.801 14.398s25.199-4.8008 34.801-14.398c19.199-19.199 19.199-50.398 0-69.602l-58.801-58.801 58.801-58.801c19.199-19.203 19.199-50.402 0-69.602z"/>
 </g>
</svg>
