<svg version="1.1" xmlns="http://www.w3.org/2000/svg" viewBox="149.78 249 800.23 700.75">
 <path d="m950 600c-0.050781 70.816-21.582 139.95-61.746 198.27-40.168 58.32-97.078 103.09-163.22 128.38-66.141 25.297-138.4 29.938-207.23 13.305-68.832-16.629-131-53.75-178.3-106.46-9.832-9.6445-15.25-22.922-14.977-36.691 0.27734-13.773 6.2227-26.82 16.434-36.066 10.211-9.2461 23.781-13.867 37.512-12.777 13.734 1.0898 26.406 7.7969 35.031 18.535 36.223 40.945 84.871 68.891 138.49 79.551 53.621 10.66 109.25 3.4531 158.39-20.523 49.133-23.977 89.051-63.395 113.64-112.22 24.59-48.824 32.5-104.37 22.516-158.12-9.9844-53.75-37.316-102.75-77.801-139.48-40.488-36.738-91.902-59.191-146.36-63.918-54.465-4.7305-108.98 8.5234-155.2 37.73-46.211 29.207-81.578 72.758-100.68 123.98 9.2969-8.8633 21.652-13.809 34.5-13.809s25.203 4.9453 34.5 13.809c9.4648 9.3867 14.789 22.168 14.789 35.5s-5.3242 26.113-14.789 35.5l-100 100c-9.3867 9.4648-22.168 14.789-35.5 14.789s-26.113-5.3242-35.5-14.789l-100-100c-12.684-12.684-17.637-31.168-12.992-48.492 4.6406-17.328 18.172-30.859 35.5-35.5 17.324-4.6445 35.809 0.30859 48.492 12.992l20.5 21c16.094-85.805 63.672-162.5 133.4-215.03 69.727-52.531 156.57-77.105 243.48-68.902 86.918 8.2031 167.63 48.59 226.3 113.24 58.668 64.648 91.059 148.89 90.816 236.19z"/>
</svg>